<svg version="1.1" id="mscgen_js-svg-__svg" class="mscgen_js-svg-__svg" xmlns="http://www.w3.org/2000/svg" xmlns:xlink="http://www.w3.org/1999/xlink" width="1616" height="1494" viewBox="0 0 1616 1494"><desc id="mscgen_js-svg-__svg__msc_source"></desc><defs><style type="text/css">svg.mscgen_js-svg-__svg{font-family:Helvetica,sans-serif;font-size:12px;font-weight:normal;font-style:normal;text-decoration:none;background-color:white;stroke:black;stroke-width:2;color:black}.mscgen_js-svg-__svg path, .mscgen_js-svg-__svg rect{fill:none;color:black;stroke:black}.mscgen_js-svg-__svg .label-text-background{fill:white;stroke:white;stroke-width:0}.mscgen_js-svg-__svg .bglayer{fill:white;stroke:white;stroke-width:0}.mscgen_js-svg-__svg line{stroke:black}.mscgen_js-svg-__svg .return, .mscgen_js-svg-__svg .comment{stroke-dasharray:5,3}.mscgen_js-svg-__svg .inline_expression_divider{stroke-dasharray:10,5}.mscgen_js-svg-__svg text{color:inherit;stroke:none;text-anchor:middle}.mscgen_js-svg-__svg text.entity-text{text-decoration:underline}.mscgen_js-svg-__svg text.anchor-start{text-anchor:start}.mscgen_js-svg-__svg .arrow-marker{overflow:visible}.mscgen_js-svg-__svg .arrow-style{stroke-width:1}.mscgen_js-svg-__svg .arcrow, .mscgen_js-svg-__svg .arcrowomit, .mscgen_js-svg-__svg .emphasised{stroke-linecap:butt}.mscgen_js-svg-__svg .arcrowomit{stroke-dasharray:2,2;}.mscgen_js-svg-__svg .box, .mscgen_js-svg-__svg .entity{fill:white;stroke-linejoin:round}.mscgen_js-svg-__svg .inherit{stroke:inherit;color:inherit}.mscgen_js-svg-__svg .inherit-fill{fill:inherit}.mscgen_js-svg-__svg .watermark{stroke:black;color:black;fill:black;font-size:48pt;font-weight:bold;opacity:0.14}</style><marker orient="auto" id="mscgen_js-svg-__svgmethod-black" class="arrow-marker" viewBox="0 0 10 10" refX="9" refY="3" markerUnits="strokeWidth" markerWidth="10" markerHeight="10"><polygon points="1,1  9,3  1,5" class="arrow-style" stroke="black" fill="black"></polygon></marker><marker orient="auto" id="mscgen_js-svg-__svgmethod-l-black" class="arrow-marker" viewBox="0 0 10 10" refX="9" refY="3" markerUnits="strokeWidth" markerWidth="10" markerHeight="10"><polygon points="17,1 9,3 17,5" class="arrow-style" stroke="black" fill="black"></polygon></marker><marker orient="auto" id="mscgen_js-svg-__svgsignal-black" class="arrow-marker" viewBox="0 0 10 10" refX="9" refY="3" markerUnits="strokeWidth" markerWidth="10" markerHeight="10"><path d="M9,3 l-8, 2" class="arrow-style" style="stroke-dasharray:100,1;stroke:black"></path></marker><marker orient="auto" id="mscgen_js-svg-__svgsignal-u-black" class="arrow-marker" viewBox="0 0 10 10" refX="9" refY="3" markerUnits="strokeWidth" markerWidth="10" markerHeight="10"><path d="M9,3 l-8,-2" class="arrow-style" style="stroke-dasharray:100,1;stroke:black"></path></marker><marker orient="auto" id="mscgen_js-svg-__svgsignal-l-black" class="arrow-marker" viewBox="0 0 10 10" refX="9" refY="3" markerUnits="strokeWidth" markerWidth="10" markerHeight="10"><path d="M9,3 l 8, 2" class="arrow-style" style="stroke-dasharray:100,1;stroke:black"></path></marker><marker orient="auto" id="mscgen_js-svg-__svgsignal-lu-black" class="arrow-marker" viewBox="0 0 10 10" refX="9" refY="3" markerUnits="strokeWidth" markerWidth="10" markerHeight="10"><path d="M9,3 l 8,-2" class="arrow-style" style="stroke-dasharray:100,1;stroke:black"></path></marker><g id="mscgen_js-svg-__svg__defs"><g id="mscgen_js-svg-__svgentities"><g id="mscgen_js-svg-__svgis"><rect width="200" height="38" class="entity"></rect><g><text x="100" y="22.5" class="entity-text "><tspan>Identity Service (is)</tspan></text></g></g><g id="mscgen_js-svg-__svgcu"><rect width="200" height="38" x="320" class="entity"></rect><g><text x="420" y="22.5" class="entity-text "><tspan>Customer (cu)</tspan></text></g></g><g id="mscgen_js-svg-__svgdr"><rect width="200" height="38" x="640" class="entity"></rect><g><text x="740" y="22.5" class="entity-text "><tspan>Data Requester (dr)</tspan></text></g></g><g id="mscgen_js-svg-__svgdo"><rect width="200" height="38" x="960" class="entity"></rect><g><text x="1060" y="22.5" class="entity-text "><tspan>Data Owner (do)</tspan></text></g></g><g id="mscgen_js-svg-__svgsc"><rect width="200" height="38" x="1280" class="entity"></rect><g><text x="1380" y="22.5" class="entity-text "><tspan>Smart Contract (sc)</tspan></text></g></g></g><g id="mscgen_js-svg-__svgarcrow"><line x1="100" y1="-25" x2="100" y2="25" class="arcrow"></line><line x1="420" y1="-25" x2="420" y2="25" class="arcrow"></line><line x1="740" y1="-25" x2="740" y2="25" class="arcrow"></line><line x1="1060" y1="-25" x2="1060" y2="25" class="arcrow"></line><line x1="1380" y1="-25" x2="1380" y2="25" class="arcrow"></line></g><g id="mscgen_js-svg-__svg0_0bc1"><line x1="100" y1="0" x2="420" y2="12" class="arc directional signal" style="stroke:black" marker-end="url(#mscgen_js-svg-__svgsignal-black)"></line><g></g></g><g id="mscgen_js-svg-__svg0_0bc2"><line x1="100" y1="0" x2="740" y2="12" class="arc directional signal" style="stroke:black" marker-end="url(#mscgen_js-svg-__svgsignal-black)"></line><g></g></g><g id="mscgen_js-svg-__svg0_0bc3"><line x1="100" y1="0" x2="1060" y2="12" class="arc directional signal" style="stroke:black" marker-end="url(#mscgen_js-svg-__svgsignal-black)"></line><g></g></g><g id="mscgen_js-svg-__svg0_0bc4"><line x1="100" y1="0" x2="1380" y2="12" class="arc directional signal" style="stroke:black" marker-end="url(#mscgen_js-svg-__svgsignal-black)"></line><g></g></g><g id="mscgen_js-svg-__svg0_0_lbl"><rect width="114" height="14" x="683" y="-15.5" class="label-text-background"></rect><text x="740" y="-4.5" class="directional-text signal-text "><tspan>1. advertise( wid(is) )</tspan></text></g><g id="mscgen_js-svg-__svgarcrow_0"><line x1="100" y1="-25" x2="100" y2="25" class="arcrow"></line><line x1="420" y1="-25" x2="420" y2="25" class="arcrow"></line><line x1="740" y1="-25" x2="740" y2="25" class="arcrow"></line><line x1="1060" y1="-25" x2="1060" y2="25" class="arcrow"></line><line x1="1380" y1="-25" x2="1380" y2="25" class="arcrow"></line></g><g id="mscgen_js-svg-__svg1_0"><line x1="420" y1="0" x2="100" y2="12" class="arc directional signal" style="stroke:black" marker-end="url(#mscgen_js-svg-__svgsignal-u-black)"></line><g><rect width="233" height="14" x="143.5" y="-15.5" class="label-text-background"></rect><text x="260" y="-4.5" class="directional-text signal-text "><tspan>2. register( wid(cu), email(cu), pubkey(cu) )</tspan></text></g></g><g id="mscgen_js-svg-__svgarcrow_1"><line x1="100" y1="-25" x2="100" y2="25" class="arcrow"></line><line x1="420" y1="-25" x2="420" y2="25" class="arcrow"></line><line x1="740" y1="-25" x2="740" y2="25" class="arcrow"></line><line x1="1060" y1="-25" x2="1060" y2="25" class="arcrow"></line><line x1="1380" y1="-25" x2="1380" y2="25" class="arcrow"></line></g><g id="mscgen_js-svg-__svg2_0"><line x1="740" y1="0" x2="100" y2="12" class="arc directional signal" style="stroke:black" marker-end="url(#mscgen_js-svg-__svgsignal-u-black)"></line><g><rect width="227" height="14" x="306.5" y="-15.5" class="label-text-background"></rect><text x="420" y="-4.5" class="directional-text signal-text "><tspan>3. register( wid(dr), email(dr), pubkey(dr) )</tspan></text></g></g><g id="mscgen_js-svg-__svgarcrow_2"><line x1="100" y1="-25" x2="100" y2="25" class="arcrow"></line><line x1="420" y1="-25" x2="420" y2="25" class="arcrow"></line><line x1="740" y1="-25" x2="740" y2="25" class="arcrow"></line><line x1="1060" y1="-25" x2="1060" y2="25" class="arcrow"></line><line x1="1380" y1="-25" x2="1380" y2="25" class="arcrow"></line></g><g id="mscgen_js-svg-__svg3_0"><line x1="1060" y1="0" x2="100" y2="12" class="arc directional signal" style="stroke:black" marker-end="url(#mscgen_js-svg-__svgsignal-u-black)"></line><g><rect width="236" height="14" x="462" y="-15.5" class="label-text-background"></rect><text x="580" y="-4.5" class="directional-text signal-text "><tspan>4. register( wid(do), email(do), pubkey(do) )</tspan></text></g></g><g id="mscgen_js-svg-__svgarcrow_3"><line x1="100" y1="-25" x2="100" y2="25" class="arcrow"></line><line x1="420" y1="-25" x2="420" y2="25" class="arcrow"></line><line x1="740" y1="-25" x2="740" y2="25" class="arcrow"></line><line x1="1060" y1="-25" x2="1060" y2="25" class="arcrow"></line><line x1="1380" y1="-25" x2="1380" y2="25" class="arcrow"></line></g><g id="mscgen_js-svg-__svg4_0"><g id="mscgen_js-svg-__svg4_0_lbl"></g></g><g id="mscgen_js-svg-__svgarcrow_4"><line x1="100" y1="-25" x2="100" y2="25" class="arcrowomit"></line><line x1="420" y1="-25" x2="420" y2="25" class="arcrowomit"></line><line x1="740" y1="-25" x2="740" y2="25" class="arcrowomit"></line><line x1="1060" y1="-25" x2="1060" y2="25" class="arcrowomit"></line><line x1="1380" y1="-25" x2="1380" y2="25" class="arcrowomit"></line></g><g id="mscgen_js-svg-__svg5_0"><line x1="740" y1="0" x2="100" y2="12" class="arc directional signal" style="stroke:black" marker-end="url(#mscgen_js-svg-__svgsignal-u-black)"></line><g><rect width="147" height="14" x="346.5" y="-15.5" class="label-text-background"></rect><text x="420" y="-4.5" class="directional-text signal-text "><tspan>5. wid_request( email(cu) )</tspan></text></g></g><g id="mscgen_js-svg-__svgarcrow_5"><line x1="100" y1="-25" x2="100" y2="25" class="arcrow"></line><line x1="420" y1="-25" x2="420" y2="25" class="arcrow"></line><line x1="740" y1="-25" x2="740" y2="25" class="arcrow"></line><line x1="1060" y1="-25" x2="1060" y2="25" class="arcrow"></line><line x1="1380" y1="-25" x2="1380" y2="25" class="arcrow"></line></g><g id="mscgen_js-svg-__svg6_0"><line x1="100" y1="0" x2="740" y2="12" class="arc directional signal" style="stroke:black" marker-end="url(#mscgen_js-svg-__svgsignal-black)"></line><g><rect width="270" height="14" x="285" y="-15.5" class="label-text-background"></rect><text x="420" y="-4.5" class="directional-text signal-text "><tspan>6. wid_response( email(cu), wid(cu), pubkey(cu) )</tspan></text></g></g><g id="mscgen_js-svg-__svgarcrow_6"><line x1="100" y1="-25" x2="100" y2="25" class="arcrow"></line><line x1="420" y1="-25" x2="420" y2="25" class="arcrow"></line><line x1="740" y1="-25" x2="740" y2="25" class="arcrow"></line><line x1="1060" y1="-25" x2="1060" y2="25" class="arcrow"></line><line x1="1380" y1="-25" x2="1380" y2="25" class="arcrow"></line></g><g id="mscgen_js-svg-__svg7_0"><line x1="740" y1="0" x2="420" y2="12" class="arc directional signal" style="stroke:black" marker-end="url(#mscgen_js-svg-__svgsignal-u-black)"></line><g><rect width="260" height="14" x="450" y="-15.5" class="label-text-background"></rect><text x="580" y="-4.5" class="directional-text signal-text "><tspan>7. eth_request( email(dr), eth(dr), sign(key(dr)) )</tspan></text></g></g><g id="mscgen_js-svg-__svgarcrow_7"><line x1="100" y1="-25" x2="100" y2="25" class="arcrow"></line><line x1="420" y1="-25" x2="420" y2="25" class="arcrow"></line><line x1="740" y1="-25" x2="740" y2="25" class="arcrow"></line><line x1="1060" y1="-25" x2="1060" y2="25" class="arcrow"></line><line x1="1380" y1="-25" x2="1380" y2="25" class="arcrow"></line></g><g id="mscgen_js-svg-__svg8_0"><line x1="420" y1="0" x2="100" y2="12" class="arc directional signal" style="stroke:black" marker-end="url(#mscgen_js-svg-__svgsignal-u-black)"></line><g><rect width="145" height="14" x="187.5" y="-15.5" class="label-text-background"></rect><text x="260" y="-4.5" class="directional-text signal-text "><tspan>8. wid_request( email(dr) )</tspan></text></g></g><g id="mscgen_js-svg-__svgarcrow_8"><line x1="100" y1="-25" x2="100" y2="25" class="arcrow"></line><line x1="420" y1="-25" x2="420" y2="25" class="arcrow"></line><line x1="740" y1="-25" x2="740" y2="25" class="arcrow"></line><line x1="1060" y1="-25" x2="1060" y2="25" class="arcrow"></line><line x1="1380" y1="-25" x2="1380" y2="25" class="arcrow"></line></g><g id="mscgen_js-svg-__svg9_0"><line x1="100" y1="0" x2="420" y2="12" class="arc directional signal" style="stroke:black" marker-end="url(#mscgen_js-svg-__svgsignal-black)"></line><g><rect width="264" height="14" x="128" y="-15.5" class="label-text-background"></rect><text x="260" y="-4.5" class="directional-text signal-text "><tspan>9. wid_response( email(dr), wid(dr), pubkey(dr) )</tspan></text></g></g><g id="mscgen_js-svg-__svgarcrow_9"><line x1="100" y1="-25" x2="100" y2="25" class="arcrow"></line><line x1="420" y1="-25" x2="420" y2="25" class="arcrow"></line><line x1="740" y1="-25" x2="740" y2="25" class="arcrow"></line><line x1="1060" y1="-25" x2="1060" y2="25" class="arcrow"></line><line x1="1380" y1="-25" x2="1380" y2="25" class="arcrow"></line></g><g id="mscgen_js-svg-__svg10_0"><line x1="420" y1="0" x2="740" y2="12" class="arc directional signal" style="stroke:black" marker-end="url(#mscgen_js-svg-__svgsignal-black)"></line><g><rect width="226" height="14" x="467" y="-15.5" class="label-text-background"></rect><text x="580" y="-4.5" class="directional-text signal-text "><tspan>10. eth_response( eth(cu), sign(key(cu)) )</tspan></text></g></g><g id="mscgen_js-svg-__svgarcrow_10"><line x1="100" y1="-25" x2="100" y2="25" class="arcrow"></line><line x1="420" y1="-25" x2="420" y2="25" class="arcrow"></line><line x1="740" y1="-25" x2="740" y2="25" class="arcrow"></line><line x1="1060" y1="-25" x2="1060" y2="25" class="arcrow"></line><line x1="1380" y1="-25" x2="1380" y2="25" class="arcrow"></line></g><g id="mscgen_js-svg-__svg11_0"><line x1="740" y1="0" x2="100" y2="12" class="arc directional signal" style="stroke:black" marker-end="url(#mscgen_js-svg-__svgsignal-u-black)"></line><g><rect width="155" height="14" x="342.5" y="-15.5" class="label-text-background"></rect><text x="420" y="-4.5" class="directional-text signal-text "><tspan>11. wid_request( email(do) )</tspan></text></g></g><g id="mscgen_js-svg-__svgarcrow_11"><line x1="100" y1="-25" x2="100" y2="25" class="arcrow"></line><line x1="420" y1="-25" x2="420" y2="25" class="arcrow"></line><line x1="740" y1="-25" x2="740" y2="25" class="arcrow"></line><line x1="1060" y1="-25" x2="1060" y2="25" class="arcrow"></line><line x1="1380" y1="-25" x2="1380" y2="25" class="arcrow"></line></g><g id="mscgen_js-svg-__svg12_0"><line x1="100" y1="0" x2="740" y2="12" class="arc directional signal" style="stroke:black" marker-end="url(#mscgen_js-svg-__svgsignal-black)"></line><g><rect width="280" height="14" x="280" y="-15.5" class="label-text-background"></rect><text x="420" y="-4.5" class="directional-text signal-text "><tspan>12. wid_response( email(do), wid(do), pubkey(do) )</tspan></text></g></g><g id="mscgen_js-svg-__svgarcrow_12"><line x1="100" y1="-25" x2="100" y2="25" class="arcrow"></line><line x1="420" y1="-25" x2="420" y2="25" class="arcrow"></line><line x1="740" y1="-25" x2="740" y2="25" class="arcrow"></line><line x1="1060" y1="-25" x2="1060" y2="25" class="arcrow"></line><line x1="1380" y1="-25" x2="1380" y2="25" class="arcrow"></line></g><g id="mscgen_js-svg-__svg13_0"><line x1="740" y1="0" x2="1060" y2="12" class="arc directional signal" style="stroke:black" marker-end="url(#mscgen_js-svg-__svgsignal-black)"></line><g><rect width="273" height="14" x="763.5" y="-15.5" class="label-text-background"></rect><text x="900" y="-4.5" class="directional-text signal-text "><tspan>13. eth_request( email(dr), eth(dr), sign( key(dr) ) )</tspan></text></g></g><g id="mscgen_js-svg-__svgarcrow_13"><line x1="100" y1="-25" x2="100" y2="25" class="arcrow"></line><line x1="420" y1="-25" x2="420" y2="25" class="arcrow"></line><line x1="740" y1="-25" x2="740" y2="25" class="arcrow"></line><line x1="1060" y1="-25" x2="1060" y2="25" class="arcrow"></line><line x1="1380" y1="-25" x2="1380" y2="25" class="arcrow"></line></g><g id="mscgen_js-svg-__svg14_0"><line x1="1060" y1="0" x2="100" y2="12" class="arc directional signal" style="stroke:black" marker-end="url(#mscgen_js-svg-__svgsignal-u-black)"></line><g><rect width="152" height="14" x="504" y="-15.5" class="label-text-background"></rect><text x="580" y="-4.5" class="directional-text signal-text "><tspan>14. wid_request( email(dr) )</tspan></text></g></g><g id="mscgen_js-svg-__svgarcrow_14"><line x1="100" y1="-25" x2="100" y2="25" class="arcrow"></line><line x1="420" y1="-25" x2="420" y2="25" class="arcrow"></line><line x1="740" y1="-25" x2="740" y2="25" class="arcrow"></line><line x1="1060" y1="-25" x2="1060" y2="25" class="arcrow"></line><line x1="1380" y1="-25" x2="1380" y2="25" class="arcrow"></line></g><g id="mscgen_js-svg-__svg15_0"><line x1="100" y1="0" x2="1060" y2="12" class="arc directional signal" style="stroke:black" marker-end="url(#mscgen_js-svg-__svgsignal-black)"></line><g><rect width="271" height="14" x="444.5" y="-15.5" class="label-text-background"></rect><text x="580" y="-4.5" class="directional-text signal-text "><tspan>15. wid_response( email(dr), wid(dr), pubkey(dr) )</tspan></text></g></g><g id="mscgen_js-svg-__svgarcrow_15"><line x1="100" y1="-25" x2="100" y2="25" class="arcrow"></line><line x1="420" y1="-25" x2="420" y2="25" class="arcrow"></line><line x1="740" y1="-25" x2="740" y2="25" class="arcrow"></line><line x1="1060" y1="-25" x2="1060" y2="25" class="arcrow"></line><line x1="1380" y1="-25" x2="1380" y2="25" class="arcrow"></line></g><g id="mscgen_js-svg-__svg16_0"><line x1="1060" y1="0" x2="740" y2="12" class="arc directional signal" style="stroke:black" marker-end="url(#mscgen_js-svg-__svgsignal-u-black)"></line><g><rect width="234" height="14" x="783" y="-15.5" class="label-text-background"></rect><text x="900" y="-4.5" class="directional-text signal-text "><tspan>16. eth_response( eth(do), sign( key(do) ) )</tspan></text></g></g><g id="mscgen_js-svg-__svgarcrow_16"><line x1="100" y1="-25" x2="100" y2="25" class="arcrow"></line><line x1="420" y1="-25" x2="420" y2="25" class="arcrow"></line><line x1="740" y1="-25" x2="740" y2="25" class="arcrow"></line><line x1="1060" y1="-25" x2="1060" y2="25" class="arcrow"></line><line x1="1380" y1="-25" x2="1380" y2="25" class="arcrow"></line></g><g id="mscgen_js-svg-__svg17_0"><line x1="740" y1="0" x2="1380" y2="12" class="arc directional method" style="stroke:black" marker-end="url(#mscgen_js-svg-__svgmethod-black)"></line><g><rect width="243" height="14" x="938.5" y="-15.5" class="label-text-background"></rect><text x="1060" y="-4.5" class="directional-text method-text "><tspan>17. create_contract( eth(cu), eth(do), eth(dr) )</tspan></text></g></g><g id="mscgen_js-svg-__svgarcrow_17"><line x1="100" y1="-25" x2="100" y2="25" class="arcrow"></line><line x1="420" y1="-25" x2="420" y2="25" class="arcrow"></line><line x1="740" y1="-25" x2="740" y2="25" class="arcrow"></line><line x1="1060" y1="-25" x2="1060" y2="25" class="arcrow"></line><line x1="1380" y1="-25" x2="1380" y2="25" class="arcrow"></line></g><g id="mscgen_js-svg-__svg18_0"><line x1="740" y1="0" x2="1380" y2="12" class="arc directional method" style="stroke:black" marker-end="url(#mscgen_js-svg-__svgmethod-black)"></line><g><rect width="515" height="14" x="802.5" y="-15.5" class="label-text-background"></rect><text x="1060" y="-4.5" class="directional-text method-text "><tspan>18. consent_request( eth(cu), crypt( pubkey(cu), data_spec( email(cu), email(do), email(dr) ) ) )</tspan></text></g></g><g id="mscgen_js-svg-__svgarcrow_18"><line x1="100" y1="-25" x2="100" y2="25" class="arcrow"></line><line x1="420" y1="-25" x2="420" y2="25" class="arcrow"></line><line x1="740" y1="-25" x2="740" y2="25" class="arcrow"></line><line x1="1060" y1="-25" x2="1060" y2="25" class="arcrow"></line><line x1="1380" y1="-25" x2="1380" y2="25" class="arcrow"></line></g><g id="mscgen_js-svg-__svg19_0"><line x1="1380" y1="0" x2="420" y2="12" class="arc directional method" style="stroke:black" marker-end="url(#mscgen_js-svg-__svgmethod-black)"></line><g><rect width="201" height="14" x="799.5" y="-15.5" class="label-text-background"></rect><text x="900" y="-4.5" class="directional-text method-text "><tspan>19. consent_request( encrypted(cu) )</tspan></text></g></g><g id="mscgen_js-svg-__svgarcrow_19"><line x1="100" y1="-25" x2="100" y2="25" class="arcrow"></line><line x1="420" y1="-25" x2="420" y2="25" class="arcrow"></line><line x1="740" y1="-25" x2="740" y2="25" class="arcrow"></line><line x1="1060" y1="-25" x2="1060" y2="25" class="arcrow"></line><line x1="1380" y1="-25" x2="1380" y2="25" class="arcrow"></line></g><g id="mscgen_js-svg-__svg20_0"><line x1="420" y1="0" x2="100" y2="12" class="arc directional signal" style="stroke:black" marker-end="url(#mscgen_js-svg-__svgsignal-u-black)"></line><g><rect width="155" height="14" x="182.5" y="-15.5" class="label-text-background"></rect><text x="260" y="-4.5" class="directional-text signal-text "><tspan>20. wid_request( email(do) )</tspan></text></g></g><g id="mscgen_js-svg-__svgarcrow_20"><line x1="100" y1="-25" x2="100" y2="25" class="arcrow"></line><line x1="420" y1="-25" x2="420" y2="25" class="arcrow"></line><line x1="740" y1="-25" x2="740" y2="25" class="arcrow"></line><line x1="1060" y1="-25" x2="1060" y2="25" class="arcrow"></line><line x1="1380" y1="-25" x2="1380" y2="25" class="arcrow"></line></g><g id="mscgen_js-svg-__svg21_0"><line x1="100" y1="0" x2="420" y2="12" class="arc directional signal" style="stroke:black" marker-end="url(#mscgen_js-svg-__svgsignal-black)"></line><g><rect width="280" height="14" x="120" y="-15.5" class="label-text-background"></rect><text x="260" y="-4.5" class="directional-text signal-text "><tspan>21. wid_response( email(do), wid(do), pubkey(do) )</tspan></text></g></g><g id="mscgen_js-svg-__svgarcrow_21"><line x1="100" y1="-25" x2="100" y2="25" class="arcrow"></line><line x1="420" y1="-25" x2="420" y2="25" class="arcrow"></line><line x1="740" y1="-25" x2="740" y2="25" class="arcrow"></line><line x1="1060" y1="-25" x2="1060" y2="25" class="arcrow"></line><line x1="1380" y1="-25" x2="1380" y2="25" class="arcrow"></line></g><g id="mscgen_js-svg-__svg22_0"><line x1="420" y1="0" x2="1380" y2="12" class="arc directional method" style="stroke:black" marker-end="url(#mscgen_js-svg-__svgmethod-black)"></line><g><rect width="527" height="14" x="636.5" y="-15.5" class="label-text-background"></rect><text x="900" y="-4.5" class="directional-text method-text "><tspan>22. consent_response( eth(cu), crypt( pubkey(do), data_spec( email(cu), email(do), email(dr) ) ) )</tspan></text></g></g><g id="mscgen_js-svg-__svgarcrow_22"><line x1="100" y1="-25" x2="100" y2="25" class="arcrow"></line><line x1="420" y1="-25" x2="420" y2="25" class="arcrow"></line><line x1="740" y1="-25" x2="740" y2="25" class="arcrow"></line><line x1="1060" y1="-25" x2="1060" y2="25" class="arcrow"></line><line x1="1380" y1="-25" x2="1380" y2="25" class="arcrow"></line></g><g id="mscgen_js-svg-__svg23_0"><line x1="1380" y1="0" x2="740" y2="12" class="arc directional method" style="stroke:black" marker-end="url(#mscgen_js-svg-__svgmethod-black)"></line><g><rect width="213" height="14" x="953.5" y="-15.5" class="label-text-background"></rect><text x="1060" y="-4.5" class="directional-text method-text "><tspan>23. consent_response( encrypted(do) )</tspan></text></g></g><g id="mscgen_js-svg-__svgarcrow_23"><line x1="100" y1="-25" x2="100" y2="25" class="arcrow"></line><line x1="420" y1="-25" x2="420" y2="25" class="arcrow"></line><line x1="740" y1="-25" x2="740" y2="25" class="arcrow"></line><line x1="1060" y1="-25" x2="1060" y2="25" class="arcrow"></line><line x1="1380" y1="-25" x2="1380" y2="25" class="arcrow"></line></g><g id="mscgen_js-svg-__svg24_0"><line x1="740" y1="0" x2="1380" y2="12" class="arc directional method" style="stroke:black" marker-end="url(#mscgen_js-svg-__svgmethod-black)"></line><g><rect width="227" height="14" x="946.5" y="-15.5" class="label-text-background"></rect><text x="1060" y="-4.5" class="directional-text method-text "><tspan>24. data_request( eth(do), encrypted(do) )</tspan></text></g></g><g id="mscgen_js-svg-__svgarcrow_24"><line x1="100" y1="-25" x2="100" y2="25" class="arcrow"></line><line x1="420" y1="-25" x2="420" y2="25" class="arcrow"></line><line x1="740" y1="-25" x2="740" y2="25" class="arcrow"></line><line x1="1060" y1="-25" x2="1060" y2="25" class="arcrow"></line><line x1="1380" y1="-25" x2="1380" y2="25" class="arcrow"></line></g><g id="mscgen_js-svg-__svg25_0"><line x1="1380" y1="0" x2="1060" y2="12" class="arc directional method" style="stroke:black" marker-end="url(#mscgen_js-svg-__svgmethod-black)"></line><g><rect width="182" height="14" x="1129" y="-15.5" class="label-text-background"></rect><text x="1220" y="-4.5" class="directional-text method-text "><tspan>25. data_request( encrypted(do) )</tspan></text></g></g><g id="mscgen_js-svg-__svgarcrow_25"><line x1="100" y1="-25" x2="100" y2="25" class="arcrow"></line><line x1="420" y1="-25" x2="420" y2="25" class="arcrow"></line><line x1="740" y1="-25" x2="740" y2="25" class="arcrow"></line><line x1="1060" y1="-25" x2="1060" y2="25" class="arcrow"></line><line x1="1380" y1="-25" x2="1380" y2="25" class="arcrow"></line></g><g id="mscgen_js-svg-__svg26_0"><line x1="1060" y1="0" x2="1380" y2="12" class="arc directional method" style="stroke:black" marker-end="url(#mscgen_js-svg-__svgmethod-black)"></line><g><rect width="498" height="14" x="971" y="-15.5" class="label-text-background"></rect><text x="1220" y="-4.5" class="directional-text method-text "><tspan>26. data_available( eth(dr), crypt( pubkey(dr), data_spec( email(cu), email(do), email(dr) ) ) )</tspan></text></g></g><g id="mscgen_js-svg-__svgarcrow_26"><line x1="100" y1="-25" x2="100" y2="25" class="arcrow"></line><line x1="420" y1="-25" x2="420" y2="25" class="arcrow"></line><line x1="740" y1="-25" x2="740" y2="25" class="arcrow"></line><line x1="1060" y1="-25" x2="1060" y2="25" class="arcrow"></line><line x1="1380" y1="-25" x2="1380" y2="25" class="arcrow"></line></g><g id="mscgen_js-svg-__svg27_0"><line x1="1380" y1="0" x2="740" y2="12" class="arc directional method" style="stroke:black" marker-end="url(#mscgen_js-svg-__svgmethod-black)"></line><g><rect width="186" height="14" x="967" y="-15.5" class="label-text-background"></rect><text x="1060" y="-4.5" class="directional-text method-text "><tspan>27. data_available( encrypted(dr) )</tspan></text></g></g><g id="mscgen_js-svg-__svgarcrow_27"><line x1="100" y1="-25" x2="100" y2="25" class="arcrow"></line><line x1="420" y1="-25" x2="420" y2="25" class="arcrow"></line><line x1="740" y1="-25" x2="740" y2="25" class="arcrow"></line><line x1="1060" y1="-25" x2="1060" y2="25" class="arcrow"></line><line x1="1380" y1="-25" x2="1380" y2="25" class="arcrow"></line></g></g></defs><g id="mscgen_js-svg-__svg__body" transform="translate(68,3) scale(1,1)"><g id="mscgen_js-svg-__svg__background"><rect width="1616" height="1494" x="-68" y="-3" class="bglayer"></rect></g><g id="mscgen_js-svg-__svg__arcspanlayer"></g><g id="mscgen_js-svg-__svg__lifelinelayer"><use x="0" y="63" xlink:href="#mscgen_js-svg-__svgarcrow"></use><use x="0" y="113" xlink:href="#mscgen_js-svg-__svgarcrow_0"></use><use x="0" y="163" xlink:href="#mscgen_js-svg-__svgarcrow_1"></use><use x="0" y="213" xlink:href="#mscgen_js-svg-__svgarcrow_2"></use><use x="0" y="263" xlink:href="#mscgen_js-svg-__svgarcrow_3"></use><use x="0" y="313" xlink:href="#mscgen_js-svg-__svgarcrow_4"></use><use x="0" y="363" xlink:href="#mscgen_js-svg-__svgarcrow_5"></use><use x="0" y="413" xlink:href="#mscgen_js-svg-__svgarcrow_6"></use><use x="0" y="463" xlink:href="#mscgen_js-svg-__svgarcrow_7"></use><use x="0" y="513" xlink:href="#mscgen_js-svg-__svgarcrow_8"></use><use x="0" y="563" xlink:href="#mscgen_js-svg-__svgarcrow_9"></use><use x="0" y="613" xlink:href="#mscgen_js-svg-__svgarcrow_10"></use><use x="0" y="663" xlink:href="#mscgen_js-svg-__svgarcrow_11"></use><use x="0" y="713" xlink:href="#mscgen_js-svg-__svgarcrow_12"></use><use x="0" y="763" xlink:href="#mscgen_js-svg-__svgarcrow_13"></use><use x="0" y="813" xlink:href="#mscgen_js-svg-__svgarcrow_14"></use><use x="0" y="863" xlink:href="#mscgen_js-svg-__svgarcrow_15"></use><use x="0" y="913" xlink:href="#mscgen_js-svg-__svgarcrow_16"></use><use x="0" y="963" xlink:href="#mscgen_js-svg-__svgarcrow_17"></use><use x="0" y="1013" xlink:href="#mscgen_js-svg-__svgarcrow_18"></use><use x="0" y="1063" xlink:href="#mscgen_js-svg-__svgarcrow_19"></use><use x="0" y="1113" xlink:href="#mscgen_js-svg-__svgarcrow_20"></use><use x="0" y="1163" xlink:href="#mscgen_js-svg-__svgarcrow_21"></use><use x="0" y="1213" xlink:href="#mscgen_js-svg-__svgarcrow_22"></use><use x="0" y="1263" xlink:href="#mscgen_js-svg-__svgarcrow_23"></use><use x="0" y="1313" xlink:href="#mscgen_js-svg-__svgarcrow_24"></use><use x="0" y="1363" xlink:href="#mscgen_js-svg-__svgarcrow_25"></use><use x="0" y="1413" xlink:href="#mscgen_js-svg-__svgarcrow_26"></use><use x="0" y="1463" xlink:href="#mscgen_js-svg-__svgarcrow_27"></use></g><g id="mscgen_js-svg-__svg__sequencelayer"><use x="0" y="0" xlink:href="#mscgen_js-svg-__svgentities"></use><use x="0" y="113" xlink:href="#mscgen_js-svg-__svg0_0bc1"></use><use x="0" y="113" xlink:href="#mscgen_js-svg-__svg0_0bc2"></use><use x="0" y="113" xlink:href="#mscgen_js-svg-__svg0_0bc3"></use><use x="0" y="113" xlink:href="#mscgen_js-svg-__svg0_0bc4"></use><use x="0" y="113" xlink:href="#mscgen_js-svg-__svg0_0_lbl"></use><use x="0" y="163" xlink:href="#mscgen_js-svg-__svg1_0"></use><use x="0" y="213" xlink:href="#mscgen_js-svg-__svg2_0"></use><use x="0" y="263" xlink:href="#mscgen_js-svg-__svg3_0"></use><use x="0" y="313" xlink:href="#mscgen_js-svg-__svg4_0"></use><use x="0" y="363" xlink:href="#mscgen_js-svg-__svg5_0"></use><use x="0" y="413" xlink:href="#mscgen_js-svg-__svg6_0"></use><use x="0" y="463" xlink:href="#mscgen_js-svg-__svg7_0"></use><use x="0" y="513" xlink:href="#mscgen_js-svg-__svg8_0"></use><use x="0" y="563" xlink:href="#mscgen_js-svg-__svg9_0"></use><use x="0" y="613" xlink:href="#mscgen_js-svg-__svg10_0"></use><use x="0" y="663" xlink:href="#mscgen_js-svg-__svg11_0"></use><use x="0" y="713" xlink:href="#mscgen_js-svg-__svg12_0"></use><use x="0" y="763" xlink:href="#mscgen_js-svg-__svg13_0"></use><use x="0" y="813" xlink:href="#mscgen_js-svg-__svg14_0"></use><use x="0" y="863" xlink:href="#mscgen_js-svg-__svg15_0"></use><use x="0" y="913" xlink:href="#mscgen_js-svg-__svg16_0"></use><use x="0" y="963" xlink:href="#mscgen_js-svg-__svg17_0"></use><use x="0" y="1013" xlink:href="#mscgen_js-svg-__svg18_0"></use><use x="0" y="1063" xlink:href="#mscgen_js-svg-__svg19_0"></use><use x="0" y="1113" xlink:href="#mscgen_js-svg-__svg20_0"></use><use x="0" y="1163" xlink:href="#mscgen_js-svg-__svg21_0"></use><use x="0" y="1213" xlink:href="#mscgen_js-svg-__svg22_0"></use><use x="0" y="1263" xlink:href="#mscgen_js-svg-__svg23_0"></use><use x="0" y="1313" xlink:href="#mscgen_js-svg-__svg24_0"></use><use x="0" y="1363" xlink:href="#mscgen_js-svg-__svg25_0"></use><use x="0" y="1413" xlink:href="#mscgen_js-svg-__svg26_0"></use><use x="0" y="1463" xlink:href="#mscgen_js-svg-__svg27_0"></use></g><g id="mscgen_js-svg-__svg__notelayer"></g><g id="mscgen_js-svg-__svg__watermark"></g></g></svg>
