<!DOCTYPE svg PUBLIC "-//W3C//DTD SVG 1.1//EN"
 "http://www.w3.org/Graphics/SVG/1.1/DTD/svg11.dtd">
<svg version="1.1"
 width="1200px" height="1132px"
 viewBox="0 0 1200 1132"
 xmlns="http://www.w3.org/2000/svg" shape-rendering="crispEdges"
 stroke-width="1" text-rendering="geometricPrecision">
<polygon fill="white" points="107,7 191,7 191,16 107,16"/>
<text x="150" y="16" textLength="82" font-family="Helvetica" font-size="12" fill="black" text-anchor="middle">

Identity Service
</text>
<polygon fill="white" points="422,7 476,7 476,16 422,16"/>
<text x="450" y="16" textLength="52" font-family="Helvetica" font-size="12" fill="black" text-anchor="middle">

Customer
</text>
<polygon fill="white" points="706,7 792,7 792,16 706,16"/>
<text x="750" y="16" textLength="84" font-family="Helvetica" font-size="12" fill="black" text-anchor="middle">

Data Requester
</text>
<polygon fill="white" points="1016,7 1082,7 1082,16 1016,16"/>
<text x="1050" y="16" textLength="64" font-family="Helvetica" font-size="12" fill="black" text-anchor="middle">

Data Owner
</text>
<line x1="150" y1="22" x2="150" y2="51" stroke="black" stroke-dasharray="2,2"/>
<line x1="450" y1="22" x2="450" y2="51" stroke="black" stroke-dasharray="2,2"/>
<line x1="750" y1="22" x2="750" y2="51" stroke="black" stroke-dasharray="2,2"/>
<line x1="1050" y1="22" x2="1050" y2="51" stroke="black" stroke-dasharray="2,2"/>
<line x1="150" y1="51" x2="150" y2="91" stroke="black"/>
<line x1="450" y1="51" x2="450" y2="91" stroke="black"/>
<line x1="750" y1="51" x2="750" y2="91" stroke="black"/>
<line x1="1050" y1="51" x2="1050" y2="91" stroke="black"/>
<line x1="150" y1="62" x2="450" y2="74" stroke="black"/>
<line x1="450" y1="74" x2="440" y2="80" stroke="black"/>
<line x1="150" y1="62" x2="750" y2="74" stroke="black"/>
<line x1="750" y1="74" x2="740" y2="80" stroke="black"/>
<line x1="150" y1="62" x2="1050" y2="74" stroke="black"/>
<line x1="1050" y1="74" x2="1040" y2="80" stroke="black"/>
<polygon fill="white" points="568,58 630,58 630,67 568,67"/>
<text x="569" y="67" textLength="60" font-family="Helvetica" font-size="12" fill="black">
advertise ()
</text>
<line x1="150" y1="91" x2="150" y2="131" stroke="black"/>
<line x1="450" y1="91" x2="450" y2="131" stroke="black"/>
<line x1="750" y1="91" x2="750" y2="131" stroke="black"/>
<line x1="1050" y1="91" x2="1050" y2="131" stroke="black"/>
<path d="M 450 108 A148,6 0 0,1 450,96" stroke="black" fill="none"/><line x1="450" y1="108" x2="440" y2="114" stroke="black"/>
<polygon fill="white" points="450,98 521,98 521,107 450,107"/>
<text x="451" y="107" textLength="69" font-family="Helvetica" font-size="12" fill="black">
create (wid1)
</text>
<line x1="150" y1="131" x2="150" y2="171" stroke="black"/>
<line x1="450" y1="131" x2="450" y2="171" stroke="black"/>
<line x1="750" y1="131" x2="750" y2="171" stroke="black"/>
<line x1="1050" y1="131" x2="1050" y2="171" stroke="black"/>
<line x1="450" y1="142" x2="150" y2="154" stroke="black"/>
<line x1="150" y1="154" x2="160" y2="160" stroke="black"/>
<polygon fill="white" points="239,138 359,138 359,147 239,147"/>
<text x="240" y="147" textLength="118" font-family="Helvetica" font-size="12" fill="black">
register (wid1, email1)
</text>
<line x1="150" y1="171" x2="150" y2="211" stroke="black"/>
<line x1="450" y1="171" x2="450" y2="211" stroke="black"/>
<line x1="750" y1="171" x2="750" y2="211" stroke="black"/>
<line x1="1050" y1="171" x2="1050" y2="211" stroke="black"/>
<path d="M 750 176 A150,6 0 0,1 750,188" stroke="black" fill="none"/><line x1="750" y1="188" x2="760" y2="194" stroke="black"/>
<polygon fill="white" points="677,178 748,178 748,187 677,187"/>
<text x="678" y="187" textLength="69" font-family="Helvetica" font-size="12" fill="black">
create (wid2)
</text>
<line x1="150" y1="211" x2="150" y2="251" stroke="black"/>
<line x1="450" y1="211" x2="450" y2="251" stroke="black"/>
<line x1="750" y1="211" x2="750" y2="251" stroke="black"/>
<line x1="1050" y1="211" x2="1050" y2="251" stroke="black"/>
<line x1="750" y1="222" x2="150" y2="234" stroke="black"/>
<line x1="150" y1="234" x2="160" y2="240" stroke="black"/>
<polygon fill="white" points="389,218 509,218 509,227 389,227"/>
<text x="390" y="227" textLength="118" font-family="Helvetica" font-size="12" fill="black">
register (wid2, email2)
</text>
<line x1="150" y1="251" x2="150" y2="291" stroke="black"/>
<line x1="450" y1="251" x2="450" y2="291" stroke="black"/>
<line x1="750" y1="251" x2="750" y2="291" stroke="black"/>
<line x1="1050" y1="251" x2="1050" y2="291" stroke="black"/>
<path d="M 1050 256 A150,6 0 0,1 1050,268" stroke="black" fill="none"/><line x1="1050" y1="268" x2="1060" y2="274" stroke="black"/>
<polygon fill="white" points="977,258 1048,258 1048,267 977,267"/>
<text x="978" y="267" textLength="69" font-family="Helvetica" font-size="12" fill="black">
create (wid3)
</text>
<line x1="150" y1="291" x2="150" y2="331" stroke="black"/>
<line x1="450" y1="291" x2="450" y2="331" stroke="black"/>
<line x1="750" y1="291" x2="750" y2="331" stroke="black"/>
<line x1="1050" y1="291" x2="1050" y2="331" stroke="black"/>
<line x1="1050" y1="302" x2="150" y2="314" stroke="black"/>
<line x1="150" y1="314" x2="160" y2="320" stroke="black"/>
<polygon fill="white" points="539,298 659,298 659,307 539,307"/>
<text x="540" y="307" textLength="118" font-family="Helvetica" font-size="12" fill="black">
register (wid3, email3)
</text>
<line x1="150" y1="331" x2="150" y2="360" stroke="black" stroke-dasharray="2,2"/>
<line x1="450" y1="331" x2="450" y2="360" stroke="black" stroke-dasharray="2,2"/>
<line x1="750" y1="331" x2="750" y2="360" stroke="black" stroke-dasharray="2,2"/>
<line x1="1050" y1="331" x2="1050" y2="360" stroke="black" stroke-dasharray="2,2"/>
<line x1="150" y1="360" x2="150" y2="400" stroke="black"/>
<line x1="450" y1="360" x2="450" y2="400" stroke="black"/>
<line x1="750" y1="360" x2="750" y2="400" stroke="black"/>
<line x1="1050" y1="360" x2="1050" y2="400" stroke="black"/>
<line x1="750" y1="371" x2="150" y2="383" stroke="black"/>
<line x1="150" y1="383" x2="160" y2="389" stroke="black"/>
<polygon fill="white" points="394,367 504,367 504,376 394,376"/>
<text x="395" y="376" textLength="108" font-family="Helvetica" font-size="12" fill="black">
wid request (email1)
</text>
<line x1="150" y1="400" x2="150" y2="440" stroke="black"/>
<line x1="450" y1="400" x2="450" y2="440" stroke="black"/>
<line x1="750" y1="400" x2="750" y2="440" stroke="black"/>
<line x1="1050" y1="400" x2="1050" y2="440" stroke="black"/>
<line x1="150" y1="411" x2="750" y2="423" stroke="black"/>
<line x1="750" y1="423" x2="740" y2="429" stroke="black"/>
<polygon fill="white" points="374,407 525,407 525,416 374,416"/>
<text x="375" y="416" textLength="149" font-family="Helvetica" font-size="12" fill="black">
wid response (email1, wid1)
</text>
<line x1="150" y1="440" x2="150" y2="480" stroke="black"/>
<line x1="450" y1="440" x2="450" y2="480" stroke="black"/>
<line x1="750" y1="440" x2="750" y2="480" stroke="black"/>
<line x1="1050" y1="440" x2="1050" y2="480" stroke="black"/>
<line x1="750" y1="451" x2="450" y2="463" stroke="black"/>
<line x1="450" y1="463" x2="460" y2="469" stroke="black"/>
<polygon fill="white" points="550,447 648,447 648,456 550,456"/>
<text x="551" y="456" textLength="96" font-family="Helvetica" font-size="12" fill="black">
eth request (wid1)
</text>
<line x1="150" y1="480" x2="150" y2="520" stroke="black"/>
<line x1="450" y1="480" x2="450" y2="520" stroke="black"/>
<line x1="750" y1="480" x2="750" y2="520" stroke="black"/>
<line x1="1050" y1="480" x2="1050" y2="520" stroke="black"/>
<path d="M 450 497 A148,6 0 0,1 450,485" stroke="black" fill="none"/><polygon fill="black" points="450,497 440,503 440,491"/>
<polygon fill="white" points="450,487 520,487 520,496 450,496"/>
<text x="451" y="496" textLength="68" font-family="Helvetica" font-size="12" fill="black">
create (eth1)
</text>
<line x1="150" y1="520" x2="150" y2="560" stroke="black"/>
<line x1="450" y1="520" x2="450" y2="560" stroke="black"/>
<line x1="750" y1="520" x2="750" y2="560" stroke="black"/>
<line x1="1050" y1="520" x2="1050" y2="560" stroke="black"/>
<line x1="450" y1="531" x2="750" y2="543" stroke="black"/>
<line x1="750" y1="543" x2="740" y2="549" stroke="black"/>
<polygon fill="white" points="546,527 652,527 652,536 546,536"/>
<text x="547" y="536" textLength="104" font-family="Helvetica" font-size="12" fill="black">
eth response (eth1)
</text>
<line x1="150" y1="560" x2="150" y2="600" stroke="black"/>
<line x1="450" y1="560" x2="450" y2="600" stroke="black"/>
<line x1="750" y1="560" x2="750" y2="600" stroke="black"/>
<line x1="1050" y1="560" x2="1050" y2="600" stroke="black"/>
<line x1="750" y1="571" x2="150" y2="583" stroke="black"/>
<line x1="150" y1="583" x2="160" y2="589" stroke="black"/>
<polygon fill="white" points="394,567 504,567 504,576 394,576"/>
<text x="395" y="576" textLength="108" font-family="Helvetica" font-size="12" fill="black">
wid request (email3)
</text>
<line x1="150" y1="600" x2="150" y2="640" stroke="black"/>
<line x1="450" y1="600" x2="450" y2="640" stroke="black"/>
<line x1="750" y1="600" x2="750" y2="640" stroke="black"/>
<line x1="1050" y1="600" x2="1050" y2="640" stroke="black"/>
<line x1="150" y1="611" x2="750" y2="623" stroke="black"/>
<line x1="750" y1="623" x2="740" y2="629" stroke="black"/>
<polygon fill="white" points="374,607 525,607 525,616 374,616"/>
<text x="375" y="616" textLength="149" font-family="Helvetica" font-size="12" fill="black">
wid response (email3, wid3)
</text>
<line x1="150" y1="640" x2="150" y2="680" stroke="black"/>
<line x1="450" y1="640" x2="450" y2="680" stroke="black"/>
<line x1="750" y1="640" x2="750" y2="680" stroke="black"/>
<line x1="1050" y1="640" x2="1050" y2="680" stroke="black"/>
<line x1="750" y1="651" x2="1050" y2="663" stroke="black"/>
<line x1="1050" y1="663" x2="1040" y2="669" stroke="black"/>
<polygon fill="white" points="850,647 948,647 948,656 850,656"/>
<text x="851" y="656" textLength="96" font-family="Helvetica" font-size="12" fill="black">
eth request (wid3)
</text>
<line x1="150" y1="680" x2="150" y2="720" stroke="black"/>
<line x1="450" y1="680" x2="450" y2="720" stroke="black"/>
<line x1="750" y1="680" x2="750" y2="720" stroke="black"/>
<line x1="1050" y1="680" x2="1050" y2="720" stroke="black"/>
<path d="M 1050 685 A150,6 0 0,1 1050,697" stroke="black" fill="none"/><polygon fill="black" points="1050,697 1060,703 1060,691"/>
<polygon fill="white" points="978,687 1048,687 1048,696 978,696"/>
<text x="979" y="696" textLength="68" font-family="Helvetica" font-size="12" fill="black">
create (eth3)
</text>
<line x1="150" y1="720" x2="150" y2="760" stroke="black"/>
<line x1="450" y1="720" x2="450" y2="760" stroke="black"/>
<line x1="750" y1="720" x2="750" y2="760" stroke="black"/>
<line x1="1050" y1="720" x2="1050" y2="760" stroke="black"/>
<line x1="1050" y1="731" x2="750" y2="743" stroke="black"/>
<line x1="750" y1="743" x2="760" y2="749" stroke="black"/>
<polygon fill="white" points="846,727 952,727 952,736 846,736"/>
<text x="847" y="736" textLength="104" font-family="Helvetica" font-size="12" fill="black">
eth response (eth3)
</text>
<line x1="150" y1="760" x2="150" y2="800" stroke="black"/>
<line x1="450" y1="760" x2="450" y2="800" stroke="black"/>
<line x1="750" y1="760" x2="750" y2="800" stroke="black"/>
<line x1="1050" y1="760" x2="1050" y2="800" stroke="black"/>
<path d="M 750 765 A150,6 0 0,1 750,777" stroke="black" fill="none"/><polygon fill="black" points="750,777 760,783 760,771"/>
<polygon fill="white" points="678,767 748,767 748,776 678,776"/>
<text x="679" y="776" textLength="68" font-family="Helvetica" font-size="12" fill="black">
create (eth2)
</text>
<line x1="150" y1="800" x2="150" y2="840" stroke="black"/>
<line x1="450" y1="800" x2="450" y2="840" stroke="black"/>
<line x1="750" y1="800" x2="750" y2="840" stroke="black"/>
<line x1="1050" y1="800" x2="1050" y2="840" stroke="black"/>
<line x1="750" y1="811" x2="150" y2="823" stroke="black"/>
<polygon fill="black" points="150,823 160,829 160,817"/>
<line x1="750" y1="811" x2="450" y2="823" stroke="black"/>
<polygon fill="black" points="450,823 460,829 460,817"/>
<line x1="750" y1="811" x2="1050" y2="823" stroke="black"/>
<polygon fill="black" points="1050,823 1040,829 1040,817"/>
<polygon fill="white" points="511,807 687,807 687,816 511,816"/>
<text x="512" y="816" textLength="174" font-family="Helvetica" font-size="12" fill="black">
create contract (eht1, eth2, eth3)
</text>
<line x1="150" y1="840" x2="150" y2="880" stroke="black"/>
<line x1="450" y1="840" x2="450" y2="880" stroke="black"/>
<line x1="750" y1="840" x2="750" y2="880" stroke="black"/>
<line x1="1050" y1="840" x2="1050" y2="880" stroke="black"/>
<line x1="750" y1="851" x2="450" y2="863" stroke="black"/>
<polygon fill="black" points="450,863 460,869 460,857"/>
<polygon fill="white" points="538,847 660,847 660,856 538,856"/>
<text x="539" y="856" textLength="120" font-family="Helvetica" font-size="12" fill="black">
consent request (eth1)
</text>
<line x1="150" y1="880" x2="150" y2="920" stroke="black"/>
<line x1="450" y1="880" x2="450" y2="920" stroke="black"/>
<line x1="750" y1="880" x2="750" y2="920" stroke="black"/>
<line x1="1050" y1="880" x2="1050" y2="920" stroke="black"/>
<line x1="450" y1="891" x2="750" y2="903" stroke="black"/>
<polygon fill="black" points="750,903 740,909 740,897"/>
<polygon fill="white" points="534,887 665,887 665,896 534,896"/>
<text x="535" y="896" textLength="129" font-family="Helvetica" font-size="12" fill="black">
consent response (eth1)
</text>
<line x1="150" y1="920" x2="150" y2="960" stroke="black"/>
<line x1="450" y1="920" x2="450" y2="960" stroke="black"/>
<line x1="750" y1="920" x2="750" y2="960" stroke="black"/>
<line x1="1050" y1="920" x2="1050" y2="960" stroke="black"/>
<line x1="750" y1="931" x2="1050" y2="943" stroke="black"/>
<polygon fill="black" points="1050,943 1040,949 1040,937"/>
<polygon fill="white" points="848,927 951,927 951,936 848,936"/>
<text x="849" y="936" textLength="101" font-family="Helvetica" font-size="12" fill="black">
data request (eth1)
</text>
<line x1="150" y1="960" x2="150" y2="1000" stroke="black"/>
<line x1="450" y1="960" x2="450" y2="1000" stroke="black"/>
<line x1="750" y1="960" x2="750" y2="1000" stroke="black"/>
<line x1="1050" y1="960" x2="1050" y2="1000" stroke="black"/>
<line x1="1050" y1="971" x2="450" y2="983" stroke="black"/>
<polygon fill="black" points="450,983 460,989 460,977"/>
<polygon fill="white" points="683,967 815,967 815,976 683,976"/>
<text x="684" y="976" textLength="130" font-family="Helvetica" font-size="12" fill="black">
confirm id request (eth1)
</text>
<line x1="150" y1="1000" x2="150" y2="1040" stroke="black"/>
<line x1="450" y1="1000" x2="450" y2="1040" stroke="black"/>
<line x1="750" y1="1000" x2="750" y2="1040" stroke="black"/>
<line x1="1050" y1="1000" x2="1050" y2="1040" stroke="black"/>
<line x1="450" y1="1011" x2="1050" y2="1023" stroke="black"/>
<polygon fill="black" points="1050,1023 1040,1029 1040,1017"/>
<polygon fill="white" points="679,1007 820,1007 820,1016 679,1016"/>
<text x="680" y="1016" textLength="139" font-family="Helvetica" font-size="12" fill="black">
confirm id response (eth1)
</text>
<line x1="150" y1="1040" x2="150" y2="1080" stroke="black"/>
<line x1="450" y1="1040" x2="450" y2="1080" stroke="black"/>
<line x1="750" y1="1040" x2="750" y2="1080" stroke="black"/>
<line x1="1050" y1="1040" x2="1050" y2="1080" stroke="black"/>
<line x1="1050" y1="1051" x2="750" y2="1063" stroke="black"/>
<polygon fill="black" points="750,1063 760,1069 760,1057"/>
<polygon fill="white" points="844,1047 955,1047 955,1056 844,1056"/>
<text x="845" y="1056" textLength="109" font-family="Helvetica" font-size="12" fill="black">
data available (eth1)
</text>
<line x1="150" y1="1080" x2="150" y2="1120" stroke="black"/>
<line x1="450" y1="1080" x2="450" y2="1120" stroke="black"/>
<line x1="750" y1="1080" x2="750" y2="1120" stroke="black"/>
<line x1="1050" y1="1080" x2="1050" y2="1120" stroke="black"/>
<line x1="750" y1="1091" x2="1050" y2="1103" stroke="black"/>
<polygon fill="black" points="1050,1103 1040,1109 1040,1097"/>
<polygon fill="white" points="845,1087 954,1087 954,1096 845,1096"/>
<text x="846" y="1096" textLength="107" font-family="Helvetica" font-size="12" fill="black">
data received (eth1)
</text>
<line x1="150" y1="1102" x2="150" y2="1132" stroke="black"/>
<line x1="450" y1="1102" x2="450" y2="1132" stroke="black"/>
<line x1="750" y1="1102" x2="750" y2="1132" stroke="black"/>
<line x1="1050" y1="1102" x2="1050" y2="1132" stroke="black"/>
</svg>
