<svg version="1.1" id="mscgen_js-svg-__svg" class="mscgen_js-svg-__svg" xmlns="http://www.w3.org/2000/svg" xmlns:xlink="http://www.w3.org/1999/xlink" width="1296" height="1494" viewBox="0 0 1296 1494"><desc id="mscgen_js-svg-__svg__msc_source"></desc><defs><style type="text/css">svg.mscgen_js-svg-__svg{font-family:Helvetica,sans-serif;font-size:12px;font-weight:normal;font-style:normal;text-decoration:none;background-color:white;stroke:black;stroke-width:2;color:black}.mscgen_js-svg-__svg path, .mscgen_js-svg-__svg rect{fill:none;color:black;stroke:black}.mscgen_js-svg-__svg .label-text-background{fill:white;stroke:white;stroke-width:0}.mscgen_js-svg-__svg .bglayer{fill:white;stroke:white;stroke-width:0}.mscgen_js-svg-__svg line{stroke:black}.mscgen_js-svg-__svg .return, .mscgen_js-svg-__svg .comment{stroke-dasharray:5,3}.mscgen_js-svg-__svg .inline_expression_divider{stroke-dasharray:10,5}.mscgen_js-svg-__svg text{color:inherit;stroke:none;text-anchor:middle}.mscgen_js-svg-__svg text.entity-text{text-decoration:underline}.mscgen_js-svg-__svg text.anchor-start{text-anchor:start}.mscgen_js-svg-__svg .arrow-marker{overflow:visible}.mscgen_js-svg-__svg .arrow-style{stroke-width:1}.mscgen_js-svg-__svg .arcrow, .mscgen_js-svg-__svg .arcrowomit, .mscgen_js-svg-__svg .emphasised{stroke-linecap:butt}.mscgen_js-svg-__svg .arcrowomit{stroke-dasharray:2,2;}.mscgen_js-svg-__svg .box, .mscgen_js-svg-__svg .entity{fill:white;stroke-linejoin:round}.mscgen_js-svg-__svg .inherit{stroke:inherit;color:inherit}.mscgen_js-svg-__svg .inherit-fill{fill:inherit}.mscgen_js-svg-__svg .watermark{stroke:black;color:black;fill:black;font-size:48pt;font-weight:bold;opacity:0.14}</style><marker orient="auto" id="mscgen_js-svg-__svgmethod-black" class="arrow-marker" viewBox="0 0 10 10" refX="9" refY="3" markerUnits="strokeWidth" markerWidth="10" markerHeight="10"><polygon points="1,1  9,3  1,5" class="arrow-style" stroke="black" fill="black"></polygon></marker><marker orient="auto" id="mscgen_js-svg-__svgmethod-l-black" class="arrow-marker" viewBox="0 0 10 10" refX="9" refY="3" markerUnits="strokeWidth" markerWidth="10" markerHeight="10"><polygon points="17,1 9,3 17,5" class="arrow-style" stroke="black" fill="black"></polygon></marker><marker orient="auto" id="mscgen_js-svg-__svgsignal-black" class="arrow-marker" viewBox="0 0 10 10" refX="9" refY="3" markerUnits="strokeWidth" markerWidth="10" markerHeight="10"><path d="M9,3 l-8, 2" class="arrow-style" style="stroke-dasharray:100,1;stroke:black"></path></marker><marker orient="auto" id="mscgen_js-svg-__svgsignal-u-black" class="arrow-marker" viewBox="0 0 10 10" refX="9" refY="3" markerUnits="strokeWidth" markerWidth="10" markerHeight="10"><path d="M9,3 l-8,-2" class="arrow-style" style="stroke-dasharray:100,1;stroke:black"></path></marker><marker orient="auto" id="mscgen_js-svg-__svgsignal-l-black" class="arrow-marker" viewBox="0 0 10 10" refX="9" refY="3" markerUnits="strokeWidth" markerWidth="10" markerHeight="10"><path d="M9,3 l 8, 2" class="arrow-style" style="stroke-dasharray:100,1;stroke:black"></path></marker><marker orient="auto" id="mscgen_js-svg-__svgsignal-lu-black" class="arrow-marker" viewBox="0 0 10 10" refX="9" refY="3" markerUnits="strokeWidth" markerWidth="10" markerHeight="10"><path d="M9,3 l 8,-2" class="arrow-style" style="stroke-dasharray:100,1;stroke:black"></path></marker><g id="mscgen_js-svg-__svg__defs"><g id="mscgen_js-svg-__svgentities"><g id="mscgen_js-svg-__svgis"><rect width="200" height="38" class="entity"></rect><g><text x="100" y="22.5" class="entity-text "><tspan>Identity Service</tspan></text></g></g><g id="mscgen_js-svg-__svgcu"><rect width="200" height="38" x="320" class="entity"></rect><g><text x="420" y="22.5" class="entity-text "><tspan>Customer</tspan></text></g></g><g id="mscgen_js-svg-__svgdr"><rect width="200" height="38" x="640" class="entity"></rect><g><text x="740" y="22.5" class="entity-text "><tspan>Data Requester</tspan></text></g></g><g id="mscgen_js-svg-__svgdo"><rect width="200" height="38" x="960" class="entity"></rect><g><text x="1060" y="22.5" class="entity-text "><tspan>Data Owner</tspan></text></g></g></g><g id="mscgen_js-svg-__svgarcrow"><line x1="100" y1="-25" x2="100" y2="25" class="arcrow"></line><line x1="420" y1="-25" x2="420" y2="25" class="arcrow"></line><line x1="740" y1="-25" x2="740" y2="25" class="arcrow"></line><line x1="1060" y1="-25" x2="1060" y2="25" class="arcrow"></line></g><g id="mscgen_js-svg-__svg0_0"><g id="mscgen_js-svg-__svg0_0_lbl"></g></g><g id="mscgen_js-svg-__svgarcrow_0"><line x1="100" y1="-25" x2="100" y2="25" class="arcrowomit"></line><line x1="420" y1="-25" x2="420" y2="25" class="arcrowomit"></line><line x1="740" y1="-25" x2="740" y2="25" class="arcrowomit"></line><line x1="1060" y1="-25" x2="1060" y2="25" class="arcrowomit"></line></g><g id="mscgen_js-svg-__svg1_0bc1"><line x1="100" y1="0" x2="420" y2="12" class="arc directional signal" style="stroke:black" marker-end="url(#mscgen_js-svg-__svgsignal-black)"></line><g></g></g><g id="mscgen_js-svg-__svg1_0bc2"><line x1="100" y1="0" x2="740" y2="12" class="arc directional signal" style="stroke:black" marker-end="url(#mscgen_js-svg-__svgsignal-black)"></line><g></g></g><g id="mscgen_js-svg-__svg1_0bc3"><line x1="100" y1="0" x2="1060" y2="12" class="arc directional signal" style="stroke:black" marker-end="url(#mscgen_js-svg-__svgsignal-black)"></line><g></g></g><g id="mscgen_js-svg-__svg1_0_lbl"><rect width="61" height="14" x="549.5" y="-15.5" class="label-text-background"></rect><text x="580" y="-4.5" class="directional-text signal-text "><tspan>advertise ()</tspan></text></g><g id="mscgen_js-svg-__svgarcrow_1"><line x1="100" y1="-25" x2="100" y2="25" class="arcrow"></line><line x1="420" y1="-25" x2="420" y2="25" class="arcrow"></line><line x1="740" y1="-25" x2="740" y2="25" class="arcrow"></line><line x1="1060" y1="-25" x2="1060" y2="25" class="arcrow"></line></g><g id="mscgen_js-svg-__svg2_0"><path d="M420,-10 C580,-5 580,20 420,20 " class="arc directional signal" style="stroke:black" marker-end="url(#mscgen_js-svg-__svgsignal-u-black)"></path><g><rect width="71" height="14" x="423" y="-26" class="label-text-background"></rect><text x="423" y="-15" class="directional-text signal-text anchor-start "><tspan>create (wid1)</tspan></text></g></g><g id="mscgen_js-svg-__svgarcrow_2"><line x1="100" y1="-25" x2="100" y2="25" class="arcrow"></line><line x1="420" y1="-25" x2="420" y2="25" class="arcrow"></line><line x1="740" y1="-25" x2="740" y2="25" class="arcrow"></line><line x1="1060" y1="-25" x2="1060" y2="25" class="arcrow"></line></g><g id="mscgen_js-svg-__svg3_0"><line x1="420" y1="0" x2="100" y2="12" class="arc directional signal" style="stroke:black" marker-end="url(#mscgen_js-svg-__svgsignal-u-black)"></line><g><rect width="123" height="14" x="198.5" y="-15.5" class="label-text-background"></rect><text x="260" y="-4.5" class="directional-text signal-text "><tspan>register (wid1, email1)</tspan></text></g></g><g id="mscgen_js-svg-__svgarcrow_3"><line x1="100" y1="-25" x2="100" y2="25" class="arcrow"></line><line x1="420" y1="-25" x2="420" y2="25" class="arcrow"></line><line x1="740" y1="-25" x2="740" y2="25" class="arcrow"></line><line x1="1060" y1="-25" x2="1060" y2="25" class="arcrow"></line></g><g id="mscgen_js-svg-__svg4_0"><path d="M740,-10 C900,-5 900,20 740,20 " class="arc directional signal" style="stroke:black" marker-end="url(#mscgen_js-svg-__svgsignal-u-black)"></path><g><rect width="71" height="14" x="743" y="-26" class="label-text-background"></rect><text x="743" y="-15" class="directional-text signal-text anchor-start "><tspan>create (wid2)</tspan></text></g></g><g id="mscgen_js-svg-__svgarcrow_4"><line x1="100" y1="-25" x2="100" y2="25" class="arcrow"></line><line x1="420" y1="-25" x2="420" y2="25" class="arcrow"></line><line x1="740" y1="-25" x2="740" y2="25" class="arcrow"></line><line x1="1060" y1="-25" x2="1060" y2="25" class="arcrow"></line></g><g id="mscgen_js-svg-__svg5_0"><line x1="740" y1="0" x2="100" y2="12" class="arc directional signal" style="stroke:black" marker-end="url(#mscgen_js-svg-__svgsignal-u-black)"></line><g><rect width="123" height="14" x="358.5" y="-15.5" class="label-text-background"></rect><text x="420" y="-4.5" class="directional-text signal-text "><tspan>register (wid2, email2)</tspan></text></g></g><g id="mscgen_js-svg-__svgarcrow_5"><line x1="100" y1="-25" x2="100" y2="25" class="arcrow"></line><line x1="420" y1="-25" x2="420" y2="25" class="arcrow"></line><line x1="740" y1="-25" x2="740" y2="25" class="arcrow"></line><line x1="1060" y1="-25" x2="1060" y2="25" class="arcrow"></line></g><g id="mscgen_js-svg-__svg6_0"><path d="M1060,-10 C1220,-5 1220,20 1060,20 " class="arc directional signal" style="stroke:black" marker-end="url(#mscgen_js-svg-__svgsignal-u-black)"></path><g><rect width="71" height="14" x="1063" y="-26" class="label-text-background"></rect><text x="1063" y="-15" class="directional-text signal-text anchor-start "><tspan>create (wid3)</tspan></text></g></g><g id="mscgen_js-svg-__svgarcrow_6"><line x1="100" y1="-25" x2="100" y2="25" class="arcrow"></line><line x1="420" y1="-25" x2="420" y2="25" class="arcrow"></line><line x1="740" y1="-25" x2="740" y2="25" class="arcrow"></line><line x1="1060" y1="-25" x2="1060" y2="25" class="arcrow"></line></g><g id="mscgen_js-svg-__svg7_0"><line x1="1060" y1="0" x2="100" y2="12" class="arc directional signal" style="stroke:black" marker-end="url(#mscgen_js-svg-__svgsignal-u-black)"></line><g><rect width="123" height="14" x="518.5" y="-15.5" class="label-text-background"></rect><text x="580" y="-4.5" class="directional-text signal-text "><tspan>register (wid3, email3)</tspan></text></g></g><g id="mscgen_js-svg-__svgarcrow_7"><line x1="100" y1="-25" x2="100" y2="25" class="arcrow"></line><line x1="420" y1="-25" x2="420" y2="25" class="arcrow"></line><line x1="740" y1="-25" x2="740" y2="25" class="arcrow"></line><line x1="1060" y1="-25" x2="1060" y2="25" class="arcrow"></line></g><g id="mscgen_js-svg-__svg8_0"><g id="mscgen_js-svg-__svg8_0_lbl"></g></g><g id="mscgen_js-svg-__svgarcrow_8"><line x1="100" y1="-25" x2="100" y2="25" class="arcrowomit"></line><line x1="420" y1="-25" x2="420" y2="25" class="arcrowomit"></line><line x1="740" y1="-25" x2="740" y2="25" class="arcrowomit"></line><line x1="1060" y1="-25" x2="1060" y2="25" class="arcrowomit"></line></g><g id="mscgen_js-svg-__svg9_0"><line x1="740" y1="0" x2="100" y2="12" class="arc directional signal" style="stroke:black" marker-end="url(#mscgen_js-svg-__svgsignal-u-black)"></line><g><rect width="113" height="14" x="363.5" y="-15.5" class="label-text-background"></rect><text x="420" y="-4.5" class="directional-text signal-text "><tspan>wid request (email1)</tspan></text></g></g><g id="mscgen_js-svg-__svgarcrow_9"><line x1="100" y1="-25" x2="100" y2="25" class="arcrow"></line><line x1="420" y1="-25" x2="420" y2="25" class="arcrow"></line><line x1="740" y1="-25" x2="740" y2="25" class="arcrow"></line><line x1="1060" y1="-25" x2="1060" y2="25" class="arcrow"></line></g><g id="mscgen_js-svg-__svg10_0"><line x1="100" y1="0" x2="740" y2="12" class="arc directional signal" style="stroke:black" marker-end="url(#mscgen_js-svg-__svgsignal-black)"></line><g><rect width="156" height="14" x="342" y="-15.5" class="label-text-background"></rect><text x="420" y="-4.5" class="directional-text signal-text "><tspan>wid response (email1, wid1)</tspan></text></g></g><g id="mscgen_js-svg-__svgarcrow_10"><line x1="100" y1="-25" x2="100" y2="25" class="arcrow"></line><line x1="420" y1="-25" x2="420" y2="25" class="arcrow"></line><line x1="740" y1="-25" x2="740" y2="25" class="arcrow"></line><line x1="1060" y1="-25" x2="1060" y2="25" class="arcrow"></line></g><g id="mscgen_js-svg-__svg11_0"><line x1="740" y1="0" x2="420" y2="12" class="arc directional signal" style="stroke:black" marker-end="url(#mscgen_js-svg-__svgsignal-u-black)"></line><g><rect width="99" height="14" x="530.5" y="-15.5" class="label-text-background"></rect><text x="580" y="-4.5" class="directional-text signal-text "><tspan>eth request (wid1)</tspan></text></g></g><g id="mscgen_js-svg-__svgarcrow_11"><line x1="100" y1="-25" x2="100" y2="25" class="arcrow"></line><line x1="420" y1="-25" x2="420" y2="25" class="arcrow"></line><line x1="740" y1="-25" x2="740" y2="25" class="arcrow"></line><line x1="1060" y1="-25" x2="1060" y2="25" class="arcrow"></line></g><g id="mscgen_js-svg-__svg12_0"><path d="M420,-10 C580,-5 580,20 420,20 " class="arc directional method" style="stroke:black" marker-end="url(#mscgen_js-svg-__svgmethod-black)"></path><g><rect width="69" height="14" x="423" y="-26" class="label-text-background"></rect><text x="423" y="-15" class="directional-text method-text anchor-start "><tspan>create (eth1)</tspan></text></g></g><g id="mscgen_js-svg-__svgarcrow_12"><line x1="100" y1="-25" x2="100" y2="25" class="arcrow"></line><line x1="420" y1="-25" x2="420" y2="25" class="arcrow"></line><line x1="740" y1="-25" x2="740" y2="25" class="arcrow"></line><line x1="1060" y1="-25" x2="1060" y2="25" class="arcrow"></line></g><g id="mscgen_js-svg-__svg13_0"><line x1="420" y1="0" x2="740" y2="12" class="arc directional signal" style="stroke:black" marker-end="url(#mscgen_js-svg-__svgsignal-black)"></line><g><rect width="108" height="14" x="526" y="-15.5" class="label-text-background"></rect><text x="580" y="-4.5" class="directional-text signal-text "><tspan>eth response (eth1)</tspan></text></g></g><g id="mscgen_js-svg-__svgarcrow_13"><line x1="100" y1="-25" x2="100" y2="25" class="arcrow"></line><line x1="420" y1="-25" x2="420" y2="25" class="arcrow"></line><line x1="740" y1="-25" x2="740" y2="25" class="arcrow"></line><line x1="1060" y1="-25" x2="1060" y2="25" class="arcrow"></line></g><g id="mscgen_js-svg-__svg14_0"><line x1="740" y1="0" x2="100" y2="12" class="arc directional signal" style="stroke:black" marker-end="url(#mscgen_js-svg-__svgsignal-u-black)"></line><g><rect width="113" height="14" x="363.5" y="-15.5" class="label-text-background"></rect><text x="420" y="-4.5" class="directional-text signal-text "><tspan>wid request (email3)</tspan></text></g></g><g id="mscgen_js-svg-__svgarcrow_14"><line x1="100" y1="-25" x2="100" y2="25" class="arcrow"></line><line x1="420" y1="-25" x2="420" y2="25" class="arcrow"></line><line x1="740" y1="-25" x2="740" y2="25" class="arcrow"></line><line x1="1060" y1="-25" x2="1060" y2="25" class="arcrow"></line></g><g id="mscgen_js-svg-__svg15_0"><line x1="100" y1="0" x2="740" y2="12" class="arc directional signal" style="stroke:black" marker-end="url(#mscgen_js-svg-__svgsignal-black)"></line><g><rect width="156" height="14" x="342" y="-15.5" class="label-text-background"></rect><text x="420" y="-4.5" class="directional-text signal-text "><tspan>wid response (email3, wid3)</tspan></text></g></g><g id="mscgen_js-svg-__svgarcrow_15"><line x1="100" y1="-25" x2="100" y2="25" class="arcrow"></line><line x1="420" y1="-25" x2="420" y2="25" class="arcrow"></line><line x1="740" y1="-25" x2="740" y2="25" class="arcrow"></line><line x1="1060" y1="-25" x2="1060" y2="25" class="arcrow"></line></g><g id="mscgen_js-svg-__svg16_0"><line x1="740" y1="0" x2="1060" y2="12" class="arc directional signal" style="stroke:black" marker-end="url(#mscgen_js-svg-__svgsignal-black)"></line><g><rect width="99" height="14" x="850.5" y="-15.5" class="label-text-background"></rect><text x="900" y="-4.5" class="directional-text signal-text "><tspan>eth request (wid3)</tspan></text></g></g><g id="mscgen_js-svg-__svgarcrow_16"><line x1="100" y1="-25" x2="100" y2="25" class="arcrow"></line><line x1="420" y1="-25" x2="420" y2="25" class="arcrow"></line><line x1="740" y1="-25" x2="740" y2="25" class="arcrow"></line><line x1="1060" y1="-25" x2="1060" y2="25" class="arcrow"></line></g><g id="mscgen_js-svg-__svg17_0"><path d="M1060,-10 C1220,-5 1220,20 1060,20 " class="arc directional method" style="stroke:black" marker-end="url(#mscgen_js-svg-__svgmethod-black)"></path><g><rect width="69" height="14" x="1063" y="-26" class="label-text-background"></rect><text x="1063" y="-15" class="directional-text method-text anchor-start "><tspan>create (eth3)</tspan></text></g></g><g id="mscgen_js-svg-__svgarcrow_17"><line x1="100" y1="-25" x2="100" y2="25" class="arcrow"></line><line x1="420" y1="-25" x2="420" y2="25" class="arcrow"></line><line x1="740" y1="-25" x2="740" y2="25" class="arcrow"></line><line x1="1060" y1="-25" x2="1060" y2="25" class="arcrow"></line></g><g id="mscgen_js-svg-__svg18_0"><line x1="1060" y1="0" x2="740" y2="12" class="arc directional signal" style="stroke:black" marker-end="url(#mscgen_js-svg-__svgsignal-u-black)"></line><g><rect width="108" height="14" x="846" y="-15.5" class="label-text-background"></rect><text x="900" y="-4.5" class="directional-text signal-text "><tspan>eth response (eth3)</tspan></text></g></g><g id="mscgen_js-svg-__svgarcrow_18"><line x1="100" y1="-25" x2="100" y2="25" class="arcrow"></line><line x1="420" y1="-25" x2="420" y2="25" class="arcrow"></line><line x1="740" y1="-25" x2="740" y2="25" class="arcrow"></line><line x1="1060" y1="-25" x2="1060" y2="25" class="arcrow"></line></g><g id="mscgen_js-svg-__svg19_0"><path d="M740,-10 C900,-5 900,20 740,20 " class="arc directional method" style="stroke:black" marker-end="url(#mscgen_js-svg-__svgmethod-black)"></path><g><rect width="69" height="14" x="743" y="-26" class="label-text-background"></rect><text x="743" y="-15" class="directional-text method-text anchor-start "><tspan>create (eth2)</tspan></text></g></g><g id="mscgen_js-svg-__svgarcrow_19"><line x1="100" y1="-25" x2="100" y2="25" class="arcrow"></line><line x1="420" y1="-25" x2="420" y2="25" class="arcrow"></line><line x1="740" y1="-25" x2="740" y2="25" class="arcrow"></line><line x1="1060" y1="-25" x2="1060" y2="25" class="arcrow"></line></g><g id="mscgen_js-svg-__svg20_0bc0"><line x1="740" y1="0" x2="100" y2="12" class="arc directional method" style="stroke:black" marker-end="url(#mscgen_js-svg-__svgmethod-black)"></line><g></g></g><g id="mscgen_js-svg-__svg20_0bc1"><line x1="740" y1="0" x2="420" y2="12" class="arc directional method" style="stroke:black" marker-end="url(#mscgen_js-svg-__svgmethod-black)"></line><g></g></g><g id="mscgen_js-svg-__svg20_0bc3"><line x1="740" y1="0" x2="1060" y2="12" class="arc directional method" style="stroke:black" marker-end="url(#mscgen_js-svg-__svgmethod-black)"></line><g></g></g><g id="mscgen_js-svg-__svg20_0_lbl"><rect width="175" height="14" x="492.5" y="-15.5" class="label-text-background"></rect><text x="580" y="-4.5" class="directional-text method-text "><tspan>create contract (eht1, eth2, eth3)</tspan></text></g><g id="mscgen_js-svg-__svgarcrow_20"><line x1="100" y1="-25" x2="100" y2="25" class="arcrow"></line><line x1="420" y1="-25" x2="420" y2="25" class="arcrow"></line><line x1="740" y1="-25" x2="740" y2="25" class="arcrow"></line><line x1="1060" y1="-25" x2="1060" y2="25" class="arcrow"></line></g><g id="mscgen_js-svg-__svg21_0"><line x1="740" y1="0" x2="420" y2="12" class="arc directional method" style="stroke:black" marker-end="url(#mscgen_js-svg-__svgmethod-black)"></line><g><rect width="124" height="14" x="518" y="-15.5" class="label-text-background"></rect><text x="580" y="-4.5" class="directional-text method-text "><tspan>consent request (eth1)</tspan></text></g></g><g id="mscgen_js-svg-__svgarcrow_21"><line x1="100" y1="-25" x2="100" y2="25" class="arcrow"></line><line x1="420" y1="-25" x2="420" y2="25" class="arcrow"></line><line x1="740" y1="-25" x2="740" y2="25" class="arcrow"></line><line x1="1060" y1="-25" x2="1060" y2="25" class="arcrow"></line></g><g id="mscgen_js-svg-__svg22_0"><line x1="420" y1="0" x2="740" y2="12" class="arc directional method" style="stroke:black" marker-end="url(#mscgen_js-svg-__svgmethod-black)"></line><g><rect width="135" height="14" x="512.5" y="-15.5" class="label-text-background"></rect><text x="580" y="-4.5" class="directional-text method-text "><tspan>consent response (eth1)</tspan></text></g></g><g id="mscgen_js-svg-__svgarcrow_22"><line x1="100" y1="-25" x2="100" y2="25" class="arcrow"></line><line x1="420" y1="-25" x2="420" y2="25" class="arcrow"></line><line x1="740" y1="-25" x2="740" y2="25" class="arcrow"></line><line x1="1060" y1="-25" x2="1060" y2="25" class="arcrow"></line></g><g id="mscgen_js-svg-__svg23_0"><line x1="740" y1="0" x2="1060" y2="12" class="arc directional method" style="stroke:black" marker-end="url(#mscgen_js-svg-__svgmethod-black)"></line><g><rect width="104" height="14" x="848" y="-15.5" class="label-text-background"></rect><text x="900" y="-4.5" class="directional-text method-text "><tspan>data request (eth1)</tspan></text></g></g><g id="mscgen_js-svg-__svgarcrow_23"><line x1="100" y1="-25" x2="100" y2="25" class="arcrow"></line><line x1="420" y1="-25" x2="420" y2="25" class="arcrow"></line><line x1="740" y1="-25" x2="740" y2="25" class="arcrow"></line><line x1="1060" y1="-25" x2="1060" y2="25" class="arcrow"></line></g><g id="mscgen_js-svg-__svg24_0"><line x1="1060" y1="0" x2="420" y2="12" class="arc directional method" style="stroke:black" marker-end="url(#mscgen_js-svg-__svgmethod-black)"></line><g><rect width="134" height="14" x="673" y="-15.5" class="label-text-background"></rect><text x="740" y="-4.5" class="directional-text method-text "><tspan>confirm id request (eth1)</tspan></text></g></g><g id="mscgen_js-svg-__svgarcrow_24"><line x1="100" y1="-25" x2="100" y2="25" class="arcrow"></line><line x1="420" y1="-25" x2="420" y2="25" class="arcrow"></line><line x1="740" y1="-25" x2="740" y2="25" class="arcrow"></line><line x1="1060" y1="-25" x2="1060" y2="25" class="arcrow"></line></g><g id="mscgen_js-svg-__svg25_0"><line x1="420" y1="0" x2="1060" y2="12" class="arc directional method" style="stroke:black" marker-end="url(#mscgen_js-svg-__svgmethod-black)"></line><g><rect width="145" height="14" x="667.5" y="-15.5" class="label-text-background"></rect><text x="740" y="-4.5" class="directional-text method-text "><tspan>confirm id response (eth1)</tspan></text></g></g><g id="mscgen_js-svg-__svgarcrow_25"><line x1="100" y1="-25" x2="100" y2="25" class="arcrow"></line><line x1="420" y1="-25" x2="420" y2="25" class="arcrow"></line><line x1="740" y1="-25" x2="740" y2="25" class="arcrow"></line><line x1="1060" y1="-25" x2="1060" y2="25" class="arcrow"></line></g><g id="mscgen_js-svg-__svg26_0"><line x1="1060" y1="0" x2="740" y2="12" class="arc directional method" style="stroke:black" marker-end="url(#mscgen_js-svg-__svgmethod-black)"></line><g><rect width="111" height="14" x="844.5" y="-15.5" class="label-text-background"></rect><text x="900" y="-4.5" class="directional-text method-text "><tspan>data available (eth1)</tspan></text></g></g><g id="mscgen_js-svg-__svgarcrow_26"><line x1="100" y1="-25" x2="100" y2="25" class="arcrow"></line><line x1="420" y1="-25" x2="420" y2="25" class="arcrow"></line><line x1="740" y1="-25" x2="740" y2="25" class="arcrow"></line><line x1="1060" y1="-25" x2="1060" y2="25" class="arcrow"></line></g><g id="mscgen_js-svg-__svg27_0"><line x1="740" y1="0" x2="1060" y2="12" class="arc directional method" style="stroke:black" marker-end="url(#mscgen_js-svg-__svgmethod-black)"></line><g><rect width="108" height="14" x="846" y="-15.5" class="label-text-background"></rect><text x="900" y="-4.5" class="directional-text method-text "><tspan>data received (eth1)</tspan></text></g></g><g id="mscgen_js-svg-__svgarcrow_27"><line x1="100" y1="-25" x2="100" y2="25" class="arcrow"></line><line x1="420" y1="-25" x2="420" y2="25" class="arcrow"></line><line x1="740" y1="-25" x2="740" y2="25" class="arcrow"></line><line x1="1060" y1="-25" x2="1060" y2="25" class="arcrow"></line></g></g></defs><g id="mscgen_js-svg-__svg__body" transform="translate(68,3) scale(1,1)"><g id="mscgen_js-svg-__svg__background"><rect width="1296" height="1494" x="-68" y="-3" class="bglayer"></rect></g><g id="mscgen_js-svg-__svg__arcspanlayer"></g><g id="mscgen_js-svg-__svg__lifelinelayer"><use x="0" y="63" xlink:href="#mscgen_js-svg-__svgarcrow"></use><use x="0" y="113" xlink:href="#mscgen_js-svg-__svgarcrow_0"></use><use x="0" y="163" xlink:href="#mscgen_js-svg-__svgarcrow_1"></use><use x="0" y="213" xlink:href="#mscgen_js-svg-__svgarcrow_2"></use><use x="0" y="263" xlink:href="#mscgen_js-svg-__svgarcrow_3"></use><use x="0" y="313" xlink:href="#mscgen_js-svg-__svgarcrow_4"></use><use x="0" y="363" xlink:href="#mscgen_js-svg-__svgarcrow_5"></use><use x="0" y="413" xlink:href="#mscgen_js-svg-__svgarcrow_6"></use><use x="0" y="463" xlink:href="#mscgen_js-svg-__svgarcrow_7"></use><use x="0" y="513" xlink:href="#mscgen_js-svg-__svgarcrow_8"></use><use x="0" y="563" xlink:href="#mscgen_js-svg-__svgarcrow_9"></use><use x="0" y="613" xlink:href="#mscgen_js-svg-__svgarcrow_10"></use><use x="0" y="663" xlink:href="#mscgen_js-svg-__svgarcrow_11"></use><use x="0" y="713" xlink:href="#mscgen_js-svg-__svgarcrow_12"></use><use x="0" y="763" xlink:href="#mscgen_js-svg-__svgarcrow_13"></use><use x="0" y="813" xlink:href="#mscgen_js-svg-__svgarcrow_14"></use><use x="0" y="863" xlink:href="#mscgen_js-svg-__svgarcrow_15"></use><use x="0" y="913" xlink:href="#mscgen_js-svg-__svgarcrow_16"></use><use x="0" y="963" xlink:href="#mscgen_js-svg-__svgarcrow_17"></use><use x="0" y="1013" xlink:href="#mscgen_js-svg-__svgarcrow_18"></use><use x="0" y="1063" xlink:href="#mscgen_js-svg-__svgarcrow_19"></use><use x="0" y="1113" xlink:href="#mscgen_js-svg-__svgarcrow_20"></use><use x="0" y="1163" xlink:href="#mscgen_js-svg-__svgarcrow_21"></use><use x="0" y="1213" xlink:href="#mscgen_js-svg-__svgarcrow_22"></use><use x="0" y="1263" xlink:href="#mscgen_js-svg-__svgarcrow_23"></use><use x="0" y="1313" xlink:href="#mscgen_js-svg-__svgarcrow_24"></use><use x="0" y="1363" xlink:href="#mscgen_js-svg-__svgarcrow_25"></use><use x="0" y="1413" xlink:href="#mscgen_js-svg-__svgarcrow_26"></use><use x="0" y="1463" xlink:href="#mscgen_js-svg-__svgarcrow_27"></use></g><g id="mscgen_js-svg-__svg__sequencelayer"><use x="0" y="0" xlink:href="#mscgen_js-svg-__svgentities"></use><use x="0" y="113" xlink:href="#mscgen_js-svg-__svg0_0"></use><use x="0" y="163" xlink:href="#mscgen_js-svg-__svg1_0bc1"></use><use x="0" y="163" xlink:href="#mscgen_js-svg-__svg1_0bc2"></use><use x="0" y="163" xlink:href="#mscgen_js-svg-__svg1_0bc3"></use><use x="0" y="163" xlink:href="#mscgen_js-svg-__svg1_0_lbl"></use><use x="0" y="213" xlink:href="#mscgen_js-svg-__svg2_0"></use><use x="0" y="263" xlink:href="#mscgen_js-svg-__svg3_0"></use><use x="0" y="313" xlink:href="#mscgen_js-svg-__svg4_0"></use><use x="0" y="363" xlink:href="#mscgen_js-svg-__svg5_0"></use><use x="0" y="413" xlink:href="#mscgen_js-svg-__svg6_0"></use><use x="0" y="463" xlink:href="#mscgen_js-svg-__svg7_0"></use><use x="0" y="513" xlink:href="#mscgen_js-svg-__svg8_0"></use><use x="0" y="563" xlink:href="#mscgen_js-svg-__svg9_0"></use><use x="0" y="613" xlink:href="#mscgen_js-svg-__svg10_0"></use><use x="0" y="663" xlink:href="#mscgen_js-svg-__svg11_0"></use><use x="0" y="713" xlink:href="#mscgen_js-svg-__svg12_0"></use><use x="0" y="763" xlink:href="#mscgen_js-svg-__svg13_0"></use><use x="0" y="813" xlink:href="#mscgen_js-svg-__svg14_0"></use><use x="0" y="863" xlink:href="#mscgen_js-svg-__svg15_0"></use><use x="0" y="913" xlink:href="#mscgen_js-svg-__svg16_0"></use><use x="0" y="963" xlink:href="#mscgen_js-svg-__svg17_0"></use><use x="0" y="1013" xlink:href="#mscgen_js-svg-__svg18_0"></use><use x="0" y="1063" xlink:href="#mscgen_js-svg-__svg19_0"></use><use x="0" y="1113" xlink:href="#mscgen_js-svg-__svg20_0bc0"></use><use x="0" y="1113" xlink:href="#mscgen_js-svg-__svg20_0bc1"></use><use x="0" y="1113" xlink:href="#mscgen_js-svg-__svg20_0bc3"></use><use x="0" y="1113" xlink:href="#mscgen_js-svg-__svg20_0_lbl"></use><use x="0" y="1163" xlink:href="#mscgen_js-svg-__svg21_0"></use><use x="0" y="1213" xlink:href="#mscgen_js-svg-__svg22_0"></use><use x="0" y="1263" xlink:href="#mscgen_js-svg-__svg23_0"></use><use x="0" y="1313" xlink:href="#mscgen_js-svg-__svg24_0"></use><use x="0" y="1363" xlink:href="#mscgen_js-svg-__svg25_0"></use><use x="0" y="1413" xlink:href="#mscgen_js-svg-__svg26_0"></use><use x="0" y="1463" xlink:href="#mscgen_js-svg-__svg27_0"></use></g><g id="mscgen_js-svg-__svg__notelayer"></g><g id="mscgen_js-svg-__svg__watermark"></g></g></svg>
