<?xml version="1.0" encoding="UTF-8" standalone="no"?>
<svg
   xmlns:dc="http://purl.org/dc/elements/1.1/"
   xmlns:cc="http://creativecommons.org/ns#"
   xmlns:rdf="http://www.w3.org/1999/02/22-rdf-syntax-ns#"
   xmlns:svg="http://www.w3.org/2000/svg"
   xmlns="http://www.w3.org/2000/svg"
   xmlns:sodipodi="http://sodipodi.sourceforge.net/DTD/sodipodi-0.dtd"
   xmlns:inkscape="http://www.inkscape.org/namespaces/inkscape"
   version="1.1"
   width="1200px"
   height="1412px"
   viewBox="0 0 1200 1412"
   shape-rendering="crispEdges"
   stroke-width="1"
   text-rendering="geometricPrecision"
   id="svg3336"
   inkscape:version="0.91 r13725"
   sodipodi:docname="sequence.svg">
  <metadata
     id="metadata3998">
    <rdf:RDF>
      <cc:Work
         rdf:about="">
        <dc:format>image/svg+xml</dc:format>
        <dc:type
           rdf:resource="http://purl.org/dc/dcmitype/StillImage" />
        <dc:title></dc:title>
      </cc:Work>
    </rdf:RDF>
  </metadata>
  <defs
     id="defs3996" />
  <sodipodi:namedview
     pagecolor="#ffffff"
     bordercolor="#666666"
     borderopacity="1"
     objecttolerance="10"
     gridtolerance="10"
     guidetolerance="10"
     inkscape:pageopacity="0"
     inkscape:pageshadow="2"
     inkscape:window-width="3840"
     inkscape:window-height="2088"
     id="namedview3994"
     showgrid="false"
     inkscape:zoom="1.3052408"
     inkscape:cx="600"
     inkscape:cy="797.93706"
     inkscape:window-x="0"
     inkscape:window-y="35"
     inkscape:window-maximized="1"
     inkscape:current-layer="svg3336" />
  <polygon
     fill="white"
     points="77,7 161,7 161,16 77,16"
     id="polygon3338" />
  <text
     x="120"
     y="16"
     textLength="82"
     font-family="Helvetica"
     font-size="12"
     fill="black"
     text-anchor="middle"
     id="text3340">

Identity Service
</text>
  <polygon
     fill="white"
     points="332,7 386,7 386,16 332,16"
     id="polygon3342" />
  <text
     x="360"
     y="16"
     textLength="52"
     font-family="Helvetica"
     font-size="12"
     fill="black"
     text-anchor="middle"
     id="text3344">

Customer
</text>
  <polygon
     fill="white"
     points="556,7 642,7 642,16 556,16"
     id="polygon3346" />
  <text
     x="600"
     y="16"
     textLength="84"
     font-family="Helvetica"
     font-size="12"
     fill="black"
     text-anchor="middle"
     id="text3348">

Data Requester
</text>
  <polygon
     fill="white"
     points="806,7 872,7 872,16 806,16"
     id="polygon3350" />
  <text
     x="840"
     y="16"
     textLength="64"
     font-family="Helvetica"
     font-size="12"
     fill="black"
     text-anchor="middle"
     id="text3352">

Data Owner
</text>
  <polygon
     fill="white"
     points="1038,7 1120,7 1120,16 1038,16"
     id="polygon3354" />
  <text
     x="1080"
     y="16"
     textLength="81"
     font-family="Helvetica"
     font-size="12"
     fill="black"
     text-anchor="middle"
     id="text3356">

Smart Contract
</text>
  <line
     x1="120"
     y1="22"
     x2="120"
     y2="51"
     stroke="black"
     stroke-dasharray="2,2"
     id="line3358" />
  <line
     x1="360"
     y1="22"
     x2="360"
     y2="51"
     stroke="black"
     stroke-dasharray="2,2"
     id="line3360" />
  <line
     x1="600"
     y1="22"
     x2="600"
     y2="51"
     stroke="black"
     stroke-dasharray="2,2"
     id="line3362" />
  <line
     x1="840"
     y1="22"
     x2="840"
     y2="51"
     stroke="black"
     stroke-dasharray="2,2"
     id="line3364" />
  <line
     x1="1080"
     y1="22"
     x2="1080"
     y2="51"
     stroke="black"
     stroke-dasharray="2,2"
     id="line3366" />
  <line
     x1="120"
     y1="51"
     x2="120"
     y2="91"
     stroke="black"
     id="line3368" />
  <line
     x1="360"
     y1="51"
     x2="360"
     y2="91"
     stroke="black"
     id="line3370" />
  <line
     x1="600"
     y1="51"
     x2="600"
     y2="91"
     stroke="black"
     id="line3372" />
  <line
     x1="840"
     y1="51"
     x2="840"
     y2="91"
     stroke="black"
     id="line3374" />
  <line
     x1="1080"
     y1="51"
     x2="1080"
     y2="91"
     stroke="black"
     id="line3376" />
  <line
     x1="120"
     y1="62"
     x2="360"
     y2="74"
     stroke="black"
     id="line3378" />
  <line
     x1="360"
     y1="74"
     x2="350"
     y2="80"
     stroke="black"
     id="line3380" />
  <line
     x1="120"
     y1="62"
     x2="600"
     y2="74"
     stroke="black"
     id="line3382" />
  <line
     x1="600"
     y1="74"
     x2="590"
     y2="80"
     stroke="black"
     id="line3384" />
  <line
     x1="120"
     y1="62"
     x2="840"
     y2="74"
     stroke="black"
     id="line3386" />
  <line
     x1="840"
     y1="74"
     x2="830"
     y2="80"
     stroke="black"
     id="line3388" />
  <line
     x1="120"
     y1="62"
     x2="1080"
     y2="74"
     stroke="black"
     id="line3390" />
  <line
     x1="1080"
     y1="74"
     x2="1070"
     y2="80"
     stroke="black"
     id="line3392" />
  <polygon
     fill="white"
     points="568,58 630,58 630,67 568,67"
     id="polygon3394" />
  <text
     x="569"
     y="67"
     textLength="60"
     font-family="Helvetica"
     font-size="12"
     fill="black"
     id="text3396">
advertise ()
</text>
  <line
     x1="120"
     y1="91"
     x2="120"
     y2="131"
     stroke="black"
     id="line3398" />
  <line
     x1="360"
     y1="91"
     x2="360"
     y2="131"
     stroke="black"
     id="line3400" />
  <line
     x1="600"
     y1="91"
     x2="600"
     y2="131"
     stroke="black"
     id="line3402" />
  <line
     x1="840"
     y1="91"
     x2="840"
     y2="131"
     stroke="black"
     id="line3404" />
  <line
     x1="1080"
     y1="91"
     x2="1080"
     y2="131"
     stroke="black"
     id="line3406" />
  <path
     d="M 360 108 A118,6 0 0,1 360,96"
     stroke="black"
     fill="none"
     id="path3408" />
  <line
     x1="360"
     y1="108"
     x2="350"
     y2="114"
     stroke="black"
     id="line3410" />
  <polygon
     fill="white"
     points="360,98 431,98 431,107 360,107"
     id="polygon3412" />
  <text
     x="361"
     y="107"
     textLength="69"
     font-family="Helvetica"
     font-size="12"
     fill="black"
     id="text3414">
create (wid1)
</text>
  <line
     x1="120"
     y1="131"
     x2="120"
     y2="171"
     stroke="black"
     id="line3416" />
  <line
     x1="360"
     y1="131"
     x2="360"
     y2="171"
     stroke="black"
     id="line3418" />
  <line
     x1="600"
     y1="131"
     x2="600"
     y2="171"
     stroke="black"
     id="line3420" />
  <line
     x1="840"
     y1="131"
     x2="840"
     y2="171"
     stroke="black"
     id="line3422" />
  <line
     x1="1080"
     y1="131"
     x2="1080"
     y2="171"
     stroke="black"
     id="line3424" />
  <line
     x1="360"
     y1="142"
     x2="120"
     y2="154"
     stroke="black"
     id="line3426" />
  <line
     x1="120"
     y1="154"
     x2="130"
     y2="160"
     stroke="black"
     id="line3428" />
  <polygon
     fill="white"
     points="179,138 299,138 299,147 179,147"
     id="polygon3430" />
  <text
     x="180"
     y="147"
     textLength="118"
     font-family="Helvetica"
     font-size="12"
     fill="black"
     id="text3432">
register (wid1, email1)
</text>
  <line
     x1="120"
     y1="171"
     x2="120"
     y2="211"
     stroke="black"
     id="line3434" />
  <line
     x1="360"
     y1="171"
     x2="360"
     y2="211"
     stroke="black"
     id="line3436" />
  <line
     x1="600"
     y1="171"
     x2="600"
     y2="211"
     stroke="black"
     id="line3438" />
  <line
     x1="840"
     y1="171"
     x2="840"
     y2="211"
     stroke="black"
     id="line3440" />
  <line
     x1="1080"
     y1="171"
     x2="1080"
     y2="211"
     stroke="black"
     id="line3442" />
  <path
     d="M 600 176 A120,6 0 0,1 600,188"
     stroke="black"
     fill="none"
     id="path3444" />
  <line
     x1="600"
     y1="188"
     x2="610"
     y2="194"
     stroke="black"
     id="line3446" />
  <polygon
     fill="white"
     points="527,178 598,178 598,187 527,187"
     id="polygon3448" />
  <text
     x="528"
     y="187"
     textLength="69"
     font-family="Helvetica"
     font-size="12"
     fill="black"
     id="text3450">
create (wid2)
</text>
  <line
     x1="120"
     y1="211"
     x2="120"
     y2="251"
     stroke="black"
     id="line3452" />
  <line
     x1="360"
     y1="211"
     x2="360"
     y2="251"
     stroke="black"
     id="line3454" />
  <line
     x1="600"
     y1="211"
     x2="600"
     y2="251"
     stroke="black"
     id="line3456" />
  <line
     x1="840"
     y1="211"
     x2="840"
     y2="251"
     stroke="black"
     id="line3458" />
  <line
     x1="1080"
     y1="211"
     x2="1080"
     y2="251"
     stroke="black"
     id="line3460" />
  <line
     x1="600"
     y1="222"
     x2="120"
     y2="234"
     stroke="black"
     id="line3462" />
  <line
     x1="120"
     y1="234"
     x2="130"
     y2="240"
     stroke="black"
     id="line3464" />
  <polygon
     fill="white"
     points="299,218 419,218 419,227 299,227"
     id="polygon3466" />
  <text
     x="300"
     y="227"
     textLength="118"
     font-family="Helvetica"
     font-size="12"
     fill="black"
     id="text3468">
register (wid2, email2)
</text>
  <line
     x1="120"
     y1="251"
     x2="120"
     y2="291"
     stroke="black"
     id="line3470" />
  <line
     x1="360"
     y1="251"
     x2="360"
     y2="291"
     stroke="black"
     id="line3472" />
  <line
     x1="600"
     y1="251"
     x2="600"
     y2="291"
     stroke="black"
     id="line3474" />
  <line
     x1="840"
     y1="251"
     x2="840"
     y2="291"
     stroke="black"
     id="line3476" />
  <line
     x1="1080"
     y1="251"
     x2="1080"
     y2="291"
     stroke="black"
     id="line3478" />
  <path
     d="M 840 256 A120,6 0 0,1 840,268"
     stroke="black"
     fill="none"
     id="path3480" />
  <line
     x1="840"
     y1="268"
     x2="850"
     y2="274"
     stroke="black"
     id="line3482" />
  <polygon
     fill="white"
     points="767,258 838,258 838,267 767,267"
     id="polygon3484" />
  <text
     x="768"
     y="267"
     textLength="69"
     font-family="Helvetica"
     font-size="12"
     fill="black"
     id="text3486">
create (wid3)
</text>
  <line
     x1="120"
     y1="291"
     x2="120"
     y2="331"
     stroke="black"
     id="line3488" />
  <line
     x1="360"
     y1="291"
     x2="360"
     y2="331"
     stroke="black"
     id="line3490" />
  <line
     x1="600"
     y1="291"
     x2="600"
     y2="331"
     stroke="black"
     id="line3492" />
  <line
     x1="840"
     y1="291"
     x2="840"
     y2="331"
     stroke="black"
     id="line3494" />
  <line
     x1="1080"
     y1="291"
     x2="1080"
     y2="331"
     stroke="black"
     id="line3496" />
  <line
     x1="840"
     y1="302"
     x2="120"
     y2="314"
     stroke="black"
     id="line3498" />
  <line
     x1="120"
     y1="314"
     x2="130"
     y2="320"
     stroke="black"
     id="line3500" />
  <polygon
     fill="white"
     points="419,298 539,298 539,307 419,307"
     id="polygon3502" />
  <text
     x="420"
     y="307"
     textLength="118"
     font-family="Helvetica"
     font-size="12"
     fill="black"
     id="text3504">
register (wid3, email3)
</text>
  <line
     x1="120"
     y1="331"
     x2="120"
     y2="360"
     stroke="black"
     stroke-dasharray="2,2"
     id="line3506" />
  <line
     x1="360"
     y1="331"
     x2="360"
     y2="360"
     stroke="black"
     stroke-dasharray="2,2"
     id="line3508" />
  <line
     x1="600"
     y1="331"
     x2="600"
     y2="360"
     stroke="black"
     stroke-dasharray="2,2"
     id="line3510" />
  <line
     x1="840"
     y1="331"
     x2="840"
     y2="360"
     stroke="black"
     stroke-dasharray="2,2"
     id="line3512" />
  <line
     x1="1080"
     y1="331"
     x2="1080"
     y2="360"
     stroke="black"
     stroke-dasharray="2,2"
     id="line3514" />
  <line
     x1="120"
     y1="360"
     x2="120"
     y2="400"
     stroke="black"
     id="line3516" />
  <line
     x1="360"
     y1="360"
     x2="360"
     y2="400"
     stroke="black"
     id="line3518" />
  <line
     x1="600"
     y1="360"
     x2="600"
     y2="400"
     stroke="black"
     id="line3520" />
  <line
     x1="840"
     y1="360"
     x2="840"
     y2="400"
     stroke="black"
     id="line3522" />
  <line
     x1="1080"
     y1="360"
     x2="1080"
     y2="400"
     stroke="black"
     id="line3524" />
  <line
     x1="600"
     y1="371"
     x2="120"
     y2="383"
     stroke="black"
     id="line3526" />
  <line
     x1="120"
     y1="383"
     x2="130"
     y2="389"
     stroke="black"
     id="line3528" />
  <polygon
     fill="white"
     points="304,367 414,367 414,376 304,376"
     id="polygon3530" />
  <text
     x="305"
     y="376"
     textLength="108"
     font-family="Helvetica"
     font-size="12"
     fill="black"
     id="text3532">
wid request (email1)
</text>
  <line
     x1="120"
     y1="400"
     x2="120"
     y2="440"
     stroke="black"
     id="line3534" />
  <line
     x1="360"
     y1="400"
     x2="360"
     y2="440"
     stroke="black"
     id="line3536" />
  <line
     x1="600"
     y1="400"
     x2="600"
     y2="440"
     stroke="black"
     id="line3538" />
  <line
     x1="840"
     y1="400"
     x2="840"
     y2="440"
     stroke="black"
     id="line3540" />
  <line
     x1="1080"
     y1="400"
     x2="1080"
     y2="440"
     stroke="black"
     id="line3542" />
  <line
     x1="120"
     y1="411"
     x2="600"
     y2="423"
     stroke="black"
     id="line3544" />
  <line
     x1="600"
     y1="423"
     x2="590"
     y2="429"
     stroke="black"
     id="line3546" />
  <polygon
     fill="white"
     points="284,407 435,407 435,416 284,416"
     id="polygon3548" />
  <text
     x="285"
     y="416"
     textLength="149"
     font-family="Helvetica"
     font-size="12"
     fill="black"
     id="text3550">
wid response (email1, wid1)
</text>
  <line
     x1="120"
     y1="440"
     x2="120"
     y2="480"
     stroke="black"
     id="line3552" />
  <line
     x1="360"
     y1="440"
     x2="360"
     y2="480"
     stroke="black"
     id="line3554" />
  <line
     x1="600"
     y1="440"
     x2="600"
     y2="480"
     stroke="black"
     id="line3556" />
  <line
     x1="840"
     y1="440"
     x2="840"
     y2="480"
     stroke="black"
     id="line3558" />
  <line
     x1="1080"
     y1="440"
     x2="1080"
     y2="480"
     stroke="black"
     id="line3560" />
  <line
     x1="600"
     y1="451"
     x2="360"
     y2="463"
     stroke="black"
     id="line3562" />
  <line
     x1="360"
     y1="463"
     x2="370"
     y2="469"
     stroke="black"
     id="line3564" />
  <polygon
     fill="white"
     points="430,447 528,447 528,456 430,456"
     id="polygon3566" />
  <text
     x="431"
     y="456"
     textLength="96"
     font-family="Helvetica"
     font-size="12"
     fill="black"
     id="text3568">
eth request (wid1)
</text>
  <line
     x1="120"
     y1="480"
     x2="120"
     y2="520"
     stroke="black"
     id="line3570" />
  <line
     x1="360"
     y1="480"
     x2="360"
     y2="520"
     stroke="black"
     id="line3572" />
  <line
     x1="600"
     y1="480"
     x2="600"
     y2="520"
     stroke="black"
     id="line3574" />
  <line
     x1="840"
     y1="480"
     x2="840"
     y2="520"
     stroke="black"
     id="line3576" />
  <line
     x1="1080"
     y1="480"
     x2="1080"
     y2="520"
     stroke="black"
     id="line3578" />
  <path
     d="M 360 497 A118,6 0 0,1 360,485"
     stroke="black"
     fill="none"
     id="path3580" />
  <polygon
     fill="black"
     points="360,497 350,503 350,491"
     id="polygon3582" />
  <polygon
     fill="white"
     points="360,487 430,487 430,496 360,496"
     id="polygon3584" />
  <text
     x="361"
     y="496"
     textLength="68"
     font-family="Helvetica"
     font-size="12"
     fill="black"
     id="text3586">
create (eth1)
</text>
  <line
     x1="120"
     y1="520"
     x2="120"
     y2="560"
     stroke="black"
     id="line3588" />
  <line
     x1="360"
     y1="520"
     x2="360"
     y2="560"
     stroke="black"
     id="line3590" />
  <line
     x1="600"
     y1="520"
     x2="600"
     y2="560"
     stroke="black"
     id="line3592" />
  <line
     x1="840"
     y1="520"
     x2="840"
     y2="560"
     stroke="black"
     id="line3594" />
  <line
     x1="1080"
     y1="520"
     x2="1080"
     y2="560"
     stroke="black"
     id="line3596" />
  <line
     x1="360"
     y1="531"
     x2="600"
     y2="543"
     stroke="black"
     id="line3598" />
  <line
     x1="600"
     y1="543"
     x2="590"
     y2="549"
     stroke="black"
     id="line3600" />
  <polygon
     fill="white"
     points="426,527 532,527 532,536 426,536"
     id="polygon3602" />
  <text
     x="427"
     y="536"
     textLength="104"
     font-family="Helvetica"
     font-size="12"
     fill="black"
     id="text3604">
eth response (eth1)
</text>
  <line
     x1="120"
     y1="560"
     x2="120"
     y2="600"
     stroke="black"
     id="line3606" />
  <line
     x1="360"
     y1="560"
     x2="360"
     y2="600"
     stroke="black"
     id="line3608" />
  <line
     x1="600"
     y1="560"
     x2="600"
     y2="600"
     stroke="black"
     id="line3610" />
  <line
     x1="840"
     y1="560"
     x2="840"
     y2="600"
     stroke="black"
     id="line3612" />
  <line
     x1="1080"
     y1="560"
     x2="1080"
     y2="600"
     stroke="black"
     id="line3614" />
  <line
     x1="600"
     y1="571"
     x2="120"
     y2="583"
     stroke="black"
     id="line3616" />
  <line
     x1="120"
     y1="583"
     x2="130"
     y2="589"
     stroke="black"
     id="line3618" />
  <polygon
     fill="white"
     points="304,567 414,567 414,576 304,576"
     id="polygon3620" />
  <text
     x="305"
     y="576"
     textLength="108"
     font-family="Helvetica"
     font-size="12"
     fill="black"
     id="text3622">
wid request (email3)
</text>
  <line
     x1="120"
     y1="600"
     x2="120"
     y2="640"
     stroke="black"
     id="line3624" />
  <line
     x1="360"
     y1="600"
     x2="360"
     y2="640"
     stroke="black"
     id="line3626" />
  <line
     x1="600"
     y1="600"
     x2="600"
     y2="640"
     stroke="black"
     id="line3628" />
  <line
     x1="840"
     y1="600"
     x2="840"
     y2="640"
     stroke="black"
     id="line3630" />
  <line
     x1="1080"
     y1="600"
     x2="1080"
     y2="640"
     stroke="black"
     id="line3632" />
  <line
     x1="120"
     y1="611"
     x2="600"
     y2="623"
     stroke="black"
     id="line3634" />
  <line
     x1="600"
     y1="623"
     x2="590"
     y2="629"
     stroke="black"
     id="line3636" />
  <polygon
     fill="white"
     points="284,607 435,607 435,616 284,616"
     id="polygon3638" />
  <text
     x="285"
     y="616"
     textLength="149"
     font-family="Helvetica"
     font-size="12"
     fill="black"
     id="text3640">
wid response (email3, wid3)
</text>
  <line
     x1="120"
     y1="640"
     x2="120"
     y2="680"
     stroke="black"
     id="line3642" />
  <line
     x1="360"
     y1="640"
     x2="360"
     y2="680"
     stroke="black"
     id="line3644" />
  <line
     x1="600"
     y1="640"
     x2="600"
     y2="680"
     stroke="black"
     id="line3646" />
  <line
     x1="840"
     y1="640"
     x2="840"
     y2="680"
     stroke="black"
     id="line3648" />
  <line
     x1="1080"
     y1="640"
     x2="1080"
     y2="680"
     stroke="black"
     id="line3650" />
  <line
     x1="600"
     y1="651"
     x2="840"
     y2="663"
     stroke="black"
     id="line3652" />
  <line
     x1="840"
     y1="663"
     x2="830"
     y2="669"
     stroke="black"
     id="line3654" />
  <polygon
     fill="white"
     points="670,647 768,647 768,656 670,656"
     id="polygon3656" />
  <text
     x="671"
     y="656"
     textLength="96"
     font-family="Helvetica"
     font-size="12"
     fill="black"
     id="text3658">
eth request (wid3)
</text>
  <line
     x1="120"
     y1="680"
     x2="120"
     y2="720"
     stroke="black"
     id="line3660" />
  <line
     x1="360"
     y1="680"
     x2="360"
     y2="720"
     stroke="black"
     id="line3662" />
  <line
     x1="600"
     y1="680"
     x2="600"
     y2="720"
     stroke="black"
     id="line3664" />
  <line
     x1="840"
     y1="680"
     x2="840"
     y2="720"
     stroke="black"
     id="line3666" />
  <line
     x1="1080"
     y1="680"
     x2="1080"
     y2="720"
     stroke="black"
     id="line3668" />
  <path
     d="M 840 685 A120,6 0 0,1 840,697"
     stroke="black"
     fill="none"
     id="path3670" />
  <polygon
     fill="black"
     points="840,697 850,703 850,691"
     id="polygon3672" />
  <polygon
     fill="white"
     points="768,687 838,687 838,696 768,696"
     id="polygon3674" />
  <text
     x="769"
     y="696"
     textLength="68"
     font-family="Helvetica"
     font-size="12"
     fill="black"
     id="text3676">
create (eth3)
</text>
  <line
     x1="120"
     y1="720"
     x2="120"
     y2="760"
     stroke="black"
     id="line3678" />
  <line
     x1="360"
     y1="720"
     x2="360"
     y2="760"
     stroke="black"
     id="line3680" />
  <line
     x1="600"
     y1="720"
     x2="600"
     y2="760"
     stroke="black"
     id="line3682" />
  <line
     x1="840"
     y1="720"
     x2="840"
     y2="760"
     stroke="black"
     id="line3684" />
  <line
     x1="1080"
     y1="720"
     x2="1080"
     y2="760"
     stroke="black"
     id="line3686" />
  <line
     x1="840"
     y1="731"
     x2="600"
     y2="743"
     stroke="black"
     id="line3688" />
  <line
     x1="600"
     y1="743"
     x2="610"
     y2="749"
     stroke="black"
     id="line3690" />
  <polygon
     fill="white"
     points="666,727 772,727 772,736 666,736"
     id="polygon3692" />
  <text
     x="667"
     y="736"
     textLength="104"
     font-family="Helvetica"
     font-size="12"
     fill="black"
     id="text3694">
eth response (eth3)
</text>
  <line
     x1="120"
     y1="760"
     x2="120"
     y2="800"
     stroke="black"
     id="line3696" />
  <line
     x1="360"
     y1="760"
     x2="360"
     y2="800"
     stroke="black"
     id="line3698" />
  <line
     x1="600"
     y1="760"
     x2="600"
     y2="800"
     stroke="black"
     id="line3700" />
  <line
     x1="840"
     y1="760"
     x2="840"
     y2="800"
     stroke="black"
     id="line3702" />
  <line
     x1="1080"
     y1="760"
     x2="1080"
     y2="800"
     stroke="black"
     id="line3704" />
  <path
     d="M 600 765 A120,6 0 0,1 600,777"
     stroke="black"
     fill="none"
     id="path3706" />
  <polygon
     fill="black"
     points="600,777 610,783 610,771"
     id="polygon3708" />
  <polygon
     fill="white"
     points="528,767 598,767 598,776 528,776"
     id="polygon3710" />
  <text
     x="529"
     y="776"
     textLength="68"
     font-family="Helvetica"
     font-size="12"
     fill="black"
     id="text3712">
create (eth2)
</text>
  <line
     x1="120"
     y1="800"
     x2="120"
     y2="840"
     stroke="black"
     id="line3714" />
  <line
     x1="360"
     y1="800"
     x2="360"
     y2="840"
     stroke="black"
     id="line3716" />
  <line
     x1="600"
     y1="800"
     x2="600"
     y2="840"
     stroke="black"
     id="line3718" />
  <line
     x1="840"
     y1="800"
     x2="840"
     y2="840"
     stroke="black"
     id="line3720" />
  <line
     x1="1080"
     y1="800"
     x2="1080"
     y2="840"
     stroke="black"
     id="line3722" />
  <line
     x1="600"
     y1="811"
     x2="1080"
     y2="823"
     stroke="black"
     id="line3724" />
  <polygon
     fill="black"
     points="1080,823 1070,829 1070,817"
     id="polygon3726" />
  <polygon
     fill="white"
     points="751,807 927,807 927,816 751,816"
     id="polygon3728" />
  <text
     x="752"
     y="816"
     textLength="174"
     font-family="Helvetica"
     font-size="12"
     fill="black"
     id="text3730">
create contract (eht1, eth2, eth3)
</text>
  <line
     x1="120"
     y1="840"
     x2="120"
     y2="880"
     stroke="black"
     id="line3732" />
  <line
     x1="360"
     y1="840"
     x2="360"
     y2="880"
     stroke="black"
     id="line3734" />
  <line
     x1="600"
     y1="840"
     x2="600"
     y2="880"
     stroke="black"
     id="line3736" />
  <line
     x1="840"
     y1="840"
     x2="840"
     y2="880"
     stroke="black"
     id="line3738" />
  <line
     x1="1080"
     y1="840"
     x2="1080"
     y2="880"
     stroke="black"
     id="line3740" />
  <line
     x1="600"
     y1="851"
     x2="1080"
     y2="863"
     stroke="black"
     id="line3742" />
  <polygon
     fill="black"
     points="1080,863 1070,869 1070,857"
     id="polygon3744" />
  <polygon
     fill="white"
     points="778,847 900,847 900,856 778,856"
     id="polygon3746" />
  <text
     x="779"
     y="856"
     textLength="120"
     font-family="Helvetica"
     font-size="12"
     fill="black"
     id="text3748">
consent request (eth1)
</text>
  <line
     x1="120"
     y1="880"
     x2="120"
     y2="920"
     stroke="black"
     id="line3750" />
  <line
     x1="360"
     y1="880"
     x2="360"
     y2="920"
     stroke="black"
     id="line3752" />
  <line
     x1="600"
     y1="880"
     x2="600"
     y2="920"
     stroke="black"
     id="line3754" />
  <line
     x1="840"
     y1="880"
     x2="840"
     y2="920"
     stroke="black"
     id="line3756" />
  <line
     x1="1080"
     y1="880"
     x2="1080"
     y2="920"
     stroke="black"
     id="line3758" />
  <line
     x1="1080"
     y1="891"
     x2="360"
     y2="903"
     stroke="black"
     id="line3760" />
  <polygon
     fill="black"
     points="360,903 370,909 370,897"
     id="polygon3762" />
  <polygon
     fill="white"
     points="658,887 780,887 780,896 658,896"
     id="polygon3764" />
  <text
     x="659"
     y="896"
     textLength="120"
     font-family="Helvetica"
     font-size="12"
     fill="black"
     id="text3766">
consent request (eth1)
</text>
  <line
     x1="120"
     y1="920"
     x2="120"
     y2="960"
     stroke="black"
     id="line3768" />
  <line
     x1="360"
     y1="920"
     x2="360"
     y2="960"
     stroke="black"
     id="line3770" />
  <line
     x1="600"
     y1="920"
     x2="600"
     y2="960"
     stroke="black"
     id="line3772" />
  <line
     x1="840"
     y1="920"
     x2="840"
     y2="960"
     stroke="black"
     id="line3774" />
  <line
     x1="1080"
     y1="920"
     x2="1080"
     y2="960"
     stroke="black"
     id="line3776" />
  <line
     x1="360"
     y1="931"
     x2="1080"
     y2="943"
     stroke="black"
     id="line3778" />
  <polygon
     fill="black"
     points="1080,943 1070,949 1070,937"
     id="polygon3780" />
  <polygon
     fill="white"
     points="654,927 785,927 785,936 654,936"
     id="polygon3782" />
  <text
     x="655"
     y="936"
     textLength="129"
     font-family="Helvetica"
     font-size="12"
     fill="black"
     id="text3784">
consent response (eth1)
</text>
  <line
     x1="120"
     y1="960"
     x2="120"
     y2="1000"
     stroke="black"
     id="line3786" />
  <line
     x1="360"
     y1="960"
     x2="360"
     y2="1000"
     stroke="black"
     id="line3788" />
  <line
     x1="600"
     y1="960"
     x2="600"
     y2="1000"
     stroke="black"
     id="line3790" />
  <line
     x1="840"
     y1="960"
     x2="840"
     y2="1000"
     stroke="black"
     id="line3792" />
  <line
     x1="1080"
     y1="960"
     x2="1080"
     y2="1000"
     stroke="black"
     id="line3794" />
  <line
     x1="1080"
     y1="971"
     x2="600"
     y2="983"
     stroke="black"
     id="line3796" />
  <polygon
     fill="black"
     points="600,983 610,989 610,977"
     id="polygon3798" />
  <polygon
     fill="white"
     points="774,967 905,967 905,976 774,976"
     id="polygon3800" />
  <text
     x="775"
     y="976"
     textLength="129"
     font-family="Helvetica"
     font-size="12"
     fill="black"
     id="text3802">
consent response (eth1)
</text>
  <line
     x1="120"
     y1="1000"
     x2="120"
     y2="1040"
     stroke="black"
     id="line3804" />
  <line
     x1="360"
     y1="1000"
     x2="360"
     y2="1040"
     stroke="black"
     id="line3806" />
  <line
     x1="600"
     y1="1000"
     x2="600"
     y2="1040"
     stroke="black"
     id="line3808" />
  <line
     x1="840"
     y1="1000"
     x2="840"
     y2="1040"
     stroke="black"
     id="line3810" />
  <line
     x1="1080"
     y1="1000"
     x2="1080"
     y2="1040"
     stroke="black"
     id="line3812" />
  <line
     x1="600"
     y1="1011"
     x2="1080"
     y2="1023"
     stroke="black"
     id="line3814" />
  <polygon
     fill="black"
     points="1080,1023 1070,1029 1070,1017"
     id="polygon3816" />
  <polygon
     fill="white"
     points="788,1007 891,1007 891,1016 788,1016"
     id="polygon3818" />
  <text
     x="789"
     y="1016"
     textLength="101"
     font-family="Helvetica"
     font-size="12"
     fill="black"
     id="text3820">
data request (eth1)
</text>
  <line
     x1="120"
     y1="1040"
     x2="120"
     y2="1080"
     stroke="black"
     id="line3822" />
  <line
     x1="360"
     y1="1040"
     x2="360"
     y2="1080"
     stroke="black"
     id="line3824" />
  <line
     x1="600"
     y1="1040"
     x2="600"
     y2="1080"
     stroke="black"
     id="line3826" />
  <line
     x1="840"
     y1="1040"
     x2="840"
     y2="1080"
     stroke="black"
     id="line3828" />
  <line
     x1="1080"
     y1="1040"
     x2="1080"
     y2="1080"
     stroke="black"
     id="line3830" />
  <line
     x1="1080"
     y1="1051"
     x2="840"
     y2="1063"
     stroke="black"
     id="line3832" />
  <polygon
     fill="black"
     points="840,1063 850,1069 850,1057"
     id="polygon3834" />
  <polygon
     fill="white"
     points="908,1047 1011,1047 1011,1056 908,1056"
     id="polygon3836" />
  <text
     x="909"
     y="1056"
     textLength="101"
     font-family="Helvetica"
     font-size="12"
     fill="black"
     id="text3838">
data request (eth1)
</text>
  <line
     x1="120"
     y1="1080"
     x2="120"
     y2="1120"
     stroke="black"
     id="line3840" />
  <line
     x1="360"
     y1="1080"
     x2="360"
     y2="1120"
     stroke="black"
     id="line3842" />
  <line
     x1="600"
     y1="1080"
     x2="600"
     y2="1120"
     stroke="black"
     id="line3844" />
  <line
     x1="840"
     y1="1080"
     x2="840"
     y2="1120"
     stroke="black"
     id="line3846" />
  <line
     x1="1080"
     y1="1080"
     x2="1080"
     y2="1120"
     stroke="black"
     id="line3848" />
  <line
     x1="840"
     y1="1091"
     x2="1080"
     y2="1103"
     stroke="black"
     id="line3850" />
  <polygon
     fill="black"
     points="1080,1103 1070,1109 1070,1097"
     id="polygon3852" />
  <polygon
     fill="white"
     points="893,1087 1025,1087 1025,1096 893,1096"
     id="polygon3854" />
  <text
     x="894"
     y="1096"
     textLength="130"
     font-family="Helvetica"
     font-size="12"
     fill="black"
     id="text3856">
confirm id request (eth1)
</text>
  <line
     x1="120"
     y1="1120"
     x2="120"
     y2="1160"
     stroke="black"
     id="line3858" />
  <line
     x1="360"
     y1="1120"
     x2="360"
     y2="1160"
     stroke="black"
     id="line3860" />
  <line
     x1="600"
     y1="1120"
     x2="600"
     y2="1160"
     stroke="black"
     id="line3862" />
  <line
     x1="840"
     y1="1120"
     x2="840"
     y2="1160"
     stroke="black"
     id="line3864" />
  <line
     x1="1080"
     y1="1120"
     x2="1080"
     y2="1160"
     stroke="black"
     id="line3866" />
  <line
     x1="1080"
     y1="1131"
     x2="360"
     y2="1143"
     stroke="black"
     id="line3868" />
  <polygon
     fill="black"
     points="360,1143 370,1149 370,1137"
     id="polygon3870" />
  <polygon
     fill="white"
     points="653,1127 785,1127 785,1136 653,1136"
     id="polygon3872" />
  <text
     x="654"
     y="1136"
     textLength="130"
     font-family="Helvetica"
     font-size="12"
     fill="black"
     id="text3874">
confirm id request (eth1)
</text>
  <line
     x1="120"
     y1="1160"
     x2="120"
     y2="1200"
     stroke="black"
     id="line3876" />
  <line
     x1="360"
     y1="1160"
     x2="360"
     y2="1200"
     stroke="black"
     id="line3878" />
  <line
     x1="600"
     y1="1160"
     x2="600"
     y2="1200"
     stroke="black"
     id="line3880" />
  <line
     x1="840"
     y1="1160"
     x2="840"
     y2="1200"
     stroke="black"
     id="line3882" />
  <line
     x1="1080"
     y1="1160"
     x2="1080"
     y2="1200"
     stroke="black"
     id="line3884" />
  <line
     x1="360"
     y1="1171"
     x2="1080"
     y2="1183"
     stroke="black"
     id="line3886" />
  <polygon
     fill="black"
     points="1080,1183 1070,1189 1070,1177"
     id="polygon3888" />
  <polygon
     fill="white"
     points="649,1167 790,1167 790,1176 649,1176"
     id="polygon3890" />
  <text
     x="650"
     y="1176"
     textLength="139"
     font-family="Helvetica"
     font-size="12"
     fill="black"
     id="text3892">
confirm id response (eth1)
</text>
  <line
     x1="120"
     y1="1200"
     x2="120"
     y2="1240"
     stroke="black"
     id="line3894" />
  <line
     x1="360"
     y1="1200"
     x2="360"
     y2="1240"
     stroke="black"
     id="line3896" />
  <line
     x1="600"
     y1="1200"
     x2="600"
     y2="1240"
     stroke="black"
     id="line3898" />
  <line
     x1="840"
     y1="1200"
     x2="840"
     y2="1240"
     stroke="black"
     id="line3900" />
  <line
     x1="1080"
     y1="1200"
     x2="1080"
     y2="1240"
     stroke="black"
     id="line3902" />
  <line
     x1="1080"
     y1="1211"
     x2="840"
     y2="1223"
     stroke="black"
     id="line3904" />
  <polygon
     fill="black"
     points="840,1223 850,1229 850,1217"
     id="polygon3906" />
  <polygon
     fill="white"
     points="889,1207 1030,1207 1030,1216 889,1216"
     id="polygon3908" />
  <text
     x="890"
     y="1216"
     textLength="139"
     font-family="Helvetica"
     font-size="12"
     fill="black"
     id="text3910">
confirm id response (eth1)
</text>
  <line
     x1="120"
     y1="1240"
     x2="120"
     y2="1280"
     stroke="black"
     id="line3912" />
  <line
     x1="360"
     y1="1240"
     x2="360"
     y2="1280"
     stroke="black"
     id="line3914" />
  <line
     x1="600"
     y1="1240"
     x2="600"
     y2="1280"
     stroke="black"
     id="line3916" />
  <line
     x1="840"
     y1="1240"
     x2="840"
     y2="1280"
     stroke="black"
     id="line3918" />
  <line
     x1="1080"
     y1="1240"
     x2="1080"
     y2="1280"
     stroke="black"
     id="line3920" />
  <line
     x1="840"
     y1="1251"
     x2="1080"
     y2="1263"
     stroke="black"
     id="line3922" />
  <polygon
     fill="black"
     points="1080,1263 1070,1269 1070,1257"
     id="polygon3924" />
  <polygon
     fill="white"
     points="904,1247 1015,1247 1015,1256 904,1256"
     id="polygon3926" />
  <text
     x="905"
     y="1256"
     textLength="109"
     font-family="Helvetica"
     font-size="12"
     fill="black"
     id="text3928">
data available (eth1)
</text>
  <line
     x1="120"
     y1="1280"
     x2="120"
     y2="1320"
     stroke="black"
     id="line3930" />
  <line
     x1="360"
     y1="1280"
     x2="360"
     y2="1320"
     stroke="black"
     id="line3932" />
  <line
     x1="600"
     y1="1280"
     x2="600"
     y2="1320"
     stroke="black"
     id="line3934" />
  <line
     x1="840"
     y1="1280"
     x2="840"
     y2="1320"
     stroke="black"
     id="line3936" />
  <line
     x1="1080"
     y1="1280"
     x2="1080"
     y2="1320"
     stroke="black"
     id="line3938" />
  <line
     x1="1080"
     y1="1291"
     x2="600"
     y2="1303"
     stroke="black"
     id="line3940" />
  <polygon
     fill="black"
     points="600,1303 610,1309 610,1297"
     id="polygon3942" />
  <polygon
     fill="white"
     points="784,1287 895,1287 895,1296 784,1296"
     id="polygon3944" />
  <text
     x="785"
     y="1296"
     textLength="109"
     font-family="Helvetica"
     font-size="12"
     fill="black"
     id="text3946">
data available (eth1)
</text>
  <line
     x1="120"
     y1="1320"
     x2="120"
     y2="1360"
     stroke="black"
     id="line3948" />
  <line
     x1="360"
     y1="1320"
     x2="360"
     y2="1360"
     stroke="black"
     id="line3950" />
  <line
     x1="600"
     y1="1320"
     x2="600"
     y2="1360"
     stroke="black"
     id="line3952" />
  <line
     x1="840"
     y1="1320"
     x2="840"
     y2="1360"
     stroke="black"
     id="line3954" />
  <line
     x1="1080"
     y1="1320"
     x2="1080"
     y2="1360"
     stroke="black"
     id="line3956" />
  <line
     x1="600"
     y1="1331"
     x2="1080"
     y2="1343"
     stroke="black"
     id="line3958" />
  <polygon
     fill="black"
     points="1080,1343 1070,1349 1070,1337"
     id="polygon3960" />
  <polygon
     fill="white"
     points="785,1327 894,1327 894,1336 785,1336"
     id="polygon3962" />
  <text
     x="786"
     y="1336"
     textLength="107"
     font-family="Helvetica"
     font-size="12"
     fill="black"
     id="text3964">
data received (eth1)
</text>
  <line
     x1="120"
     y1="1360"
     x2="120"
     y2="1400"
     stroke="black"
     id="line3966" />
  <line
     x1="360"
     y1="1360"
     x2="360"
     y2="1400"
     stroke="black"
     id="line3968" />
  <line
     x1="600"
     y1="1360"
     x2="600"
     y2="1400"
     stroke="black"
     id="line3970" />
  <line
     x1="840"
     y1="1360"
     x2="840"
     y2="1400"
     stroke="black"
     id="line3972" />
  <line
     x1="1080"
     y1="1360"
     x2="1080"
     y2="1400"
     stroke="black"
     id="line3974" />
  <line
     x1="1080"
     y1="1371"
     x2="840"
     y2="1383"
     stroke="black"
     id="line3976" />
  <polygon
     fill="black"
     points="840,1383 850,1389 850,1377"
     id="polygon3978" />
  <polygon
     fill="white"
     points="905,1367 1014,1367 1014,1376 905,1376"
     id="polygon3980" />
  <text
     x="906"
     y="1376"
     textLength="107"
     font-family="Helvetica"
     font-size="12"
     fill="black"
     id="text3982">
data received (eth1)
</text>
  <line
     x1="120"
     y1="1382"
     x2="120"
     y2="1412"
     stroke="black"
     id="line3984" />
  <line
     x1="360"
     y1="1382"
     x2="360"
     y2="1412"
     stroke="black"
     id="line3986" />
  <line
     x1="600"
     y1="1382"
     x2="600"
     y2="1412"
     stroke="black"
     id="line3988" />
  <line
     x1="840"
     y1="1382"
     x2="840"
     y2="1412"
     stroke="black"
     id="line3990" />
  <line
     x1="1080"
     y1="1382"
     x2="1080"
     y2="1412"
     stroke="black"
     id="line3992" />
</svg>
