<!DOCTYPE svg PUBLIC "-//W3C//DTD SVG 1.1//EN"
 "http://www.w3.org/Graphics/SVG/1.1/DTD/svg11.dtd">
<svg version="1.1"
 width="1200px" height="1412px"
 viewBox="0 0 1200 1412"
 xmlns="http://www.w3.org/2000/svg" shape-rendering="crispEdges"
 stroke-width="1" text-rendering="geometricPrecision">
<polygon fill="white" points="77,7 161,7 161,16 77,16"/>
<text x="120" y="16" textLength="82" font-family="Helvetica" font-size="12" fill="black" text-anchor="middle">

Identity Service
</text>
<polygon fill="white" points="332,7 386,7 386,16 332,16"/>
<text x="360" y="16" textLength="52" font-family="Helvetica" font-size="12" fill="black" text-anchor="middle">

Customer
</text>
<polygon fill="white" points="556,7 642,7 642,16 556,16"/>
<text x="600" y="16" textLength="84" font-family="Helvetica" font-size="12" fill="black" text-anchor="middle">

Data Requester
</text>
<polygon fill="white" points="806,7 872,7 872,16 806,16"/>
<text x="840" y="16" textLength="64" font-family="Helvetica" font-size="12" fill="black" text-anchor="middle">

Data Owner
</text>
<polygon fill="white" points="1038,7 1120,7 1120,16 1038,16"/>
<text x="1080" y="16" textLength="81" font-family="Helvetica" font-size="12" fill="black" text-anchor="middle">

Smart Contract
</text>
<line x1="120" y1="22" x2="120" y2="51" stroke="black" stroke-dasharray="2,2"/>
<line x1="360" y1="22" x2="360" y2="51" stroke="black" stroke-dasharray="2,2"/>
<line x1="600" y1="22" x2="600" y2="51" stroke="black" stroke-dasharray="2,2"/>
<line x1="840" y1="22" x2="840" y2="51" stroke="black" stroke-dasharray="2,2"/>
<line x1="1080" y1="22" x2="1080" y2="51" stroke="black" stroke-dasharray="2,2"/>
<line x1="120" y1="51" x2="120" y2="91" stroke="black"/>
<line x1="360" y1="51" x2="360" y2="91" stroke="black"/>
<line x1="600" y1="51" x2="600" y2="91" stroke="black"/>
<line x1="840" y1="51" x2="840" y2="91" stroke="black"/>
<line x1="1080" y1="51" x2="1080" y2="91" stroke="black"/>
<line x1="120" y1="62" x2="360" y2="74" stroke="black"/>
<line x1="360" y1="74" x2="350" y2="80" stroke="black"/>
<line x1="120" y1="62" x2="600" y2="74" stroke="black"/>
<line x1="600" y1="74" x2="590" y2="80" stroke="black"/>
<line x1="120" y1="62" x2="840" y2="74" stroke="black"/>
<line x1="840" y1="74" x2="830" y2="80" stroke="black"/>
<line x1="120" y1="62" x2="1080" y2="74" stroke="black"/>
<line x1="1080" y1="74" x2="1070" y2="80" stroke="black"/>
<polygon fill="white" points="568,58 630,58 630,67 568,67"/>
<text x="569" y="67" textLength="60" font-family="Helvetica" font-size="12" fill="black">
advertise ()
</text>
<line x1="120" y1="91" x2="120" y2="131" stroke="black"/>
<line x1="360" y1="91" x2="360" y2="131" stroke="black"/>
<line x1="600" y1="91" x2="600" y2="131" stroke="black"/>
<line x1="840" y1="91" x2="840" y2="131" stroke="black"/>
<line x1="1080" y1="91" x2="1080" y2="131" stroke="black"/>
<path d="M 360 108 A118,6 0 0,1 360,96" stroke="black" fill="none"/><line x1="360" y1="108" x2="350" y2="114" stroke="black"/>
<polygon fill="white" points="360,98 431,98 431,107 360,107"/>
<text x="361" y="107" textLength="69" font-family="Helvetica" font-size="12" fill="black">
create (wid1)
</text>
<line x1="120" y1="131" x2="120" y2="171" stroke="black"/>
<line x1="360" y1="131" x2="360" y2="171" stroke="black"/>
<line x1="600" y1="131" x2="600" y2="171" stroke="black"/>
<line x1="840" y1="131" x2="840" y2="171" stroke="black"/>
<line x1="1080" y1="131" x2="1080" y2="171" stroke="black"/>
<line x1="360" y1="142" x2="120" y2="154" stroke="black"/>
<line x1="120" y1="154" x2="130" y2="160" stroke="black"/>
<polygon fill="white" points="179,138 299,138 299,147 179,147"/>
<text x="180" y="147" textLength="118" font-family="Helvetica" font-size="12" fill="black">
register (wid1, email1)
</text>
<line x1="120" y1="171" x2="120" y2="211" stroke="black"/>
<line x1="360" y1="171" x2="360" y2="211" stroke="black"/>
<line x1="600" y1="171" x2="600" y2="211" stroke="black"/>
<line x1="840" y1="171" x2="840" y2="211" stroke="black"/>
<line x1="1080" y1="171" x2="1080" y2="211" stroke="black"/>
<path d="M 600 176 A120,6 0 0,1 600,188" stroke="black" fill="none"/><line x1="600" y1="188" x2="610" y2="194" stroke="black"/>
<polygon fill="white" points="527,178 598,178 598,187 527,187"/>
<text x="528" y="187" textLength="69" font-family="Helvetica" font-size="12" fill="black">
create (wid2)
</text>
<line x1="120" y1="211" x2="120" y2="251" stroke="black"/>
<line x1="360" y1="211" x2="360" y2="251" stroke="black"/>
<line x1="600" y1="211" x2="600" y2="251" stroke="black"/>
<line x1="840" y1="211" x2="840" y2="251" stroke="black"/>
<line x1="1080" y1="211" x2="1080" y2="251" stroke="black"/>
<line x1="600" y1="222" x2="120" y2="234" stroke="black"/>
<line x1="120" y1="234" x2="130" y2="240" stroke="black"/>
<polygon fill="white" points="299,218 419,218 419,227 299,227"/>
<text x="300" y="227" textLength="118" font-family="Helvetica" font-size="12" fill="black">
register (wid2, email2)
</text>
<line x1="120" y1="251" x2="120" y2="291" stroke="black"/>
<line x1="360" y1="251" x2="360" y2="291" stroke="black"/>
<line x1="600" y1="251" x2="600" y2="291" stroke="black"/>
<line x1="840" y1="251" x2="840" y2="291" stroke="black"/>
<line x1="1080" y1="251" x2="1080" y2="291" stroke="black"/>
<path d="M 840 256 A120,6 0 0,1 840,268" stroke="black" fill="none"/><line x1="840" y1="268" x2="850" y2="274" stroke="black"/>
<polygon fill="white" points="767,258 838,258 838,267 767,267"/>
<text x="768" y="267" textLength="69" font-family="Helvetica" font-size="12" fill="black">
create (wid3)
</text>
<line x1="120" y1="291" x2="120" y2="331" stroke="black"/>
<line x1="360" y1="291" x2="360" y2="331" stroke="black"/>
<line x1="600" y1="291" x2="600" y2="331" stroke="black"/>
<line x1="840" y1="291" x2="840" y2="331" stroke="black"/>
<line x1="1080" y1="291" x2="1080" y2="331" stroke="black"/>
<line x1="840" y1="302" x2="120" y2="314" stroke="black"/>
<line x1="120" y1="314" x2="130" y2="320" stroke="black"/>
<polygon fill="white" points="419,298 539,298 539,307 419,307"/>
<text x="420" y="307" textLength="118" font-family="Helvetica" font-size="12" fill="black">
register (wid3, email3)
</text>
<line x1="120" y1="331" x2="120" y2="360" stroke="black" stroke-dasharray="2,2"/>
<line x1="360" y1="331" x2="360" y2="360" stroke="black" stroke-dasharray="2,2"/>
<line x1="600" y1="331" x2="600" y2="360" stroke="black" stroke-dasharray="2,2"/>
<line x1="840" y1="331" x2="840" y2="360" stroke="black" stroke-dasharray="2,2"/>
<line x1="1080" y1="331" x2="1080" y2="360" stroke="black" stroke-dasharray="2,2"/>
<line x1="120" y1="360" x2="120" y2="400" stroke="black"/>
<line x1="360" y1="360" x2="360" y2="400" stroke="black"/>
<line x1="600" y1="360" x2="600" y2="400" stroke="black"/>
<line x1="840" y1="360" x2="840" y2="400" stroke="black"/>
<line x1="1080" y1="360" x2="1080" y2="400" stroke="black"/>
<line x1="600" y1="371" x2="120" y2="383" stroke="black"/>
<line x1="120" y1="383" x2="130" y2="389" stroke="black"/>
<polygon fill="white" points="304,367 414,367 414,376 304,376"/>
<text x="305" y="376" textLength="108" font-family="Helvetica" font-size="12" fill="black">
wid request (email1)
</text>
<line x1="120" y1="400" x2="120" y2="440" stroke="black"/>
<line x1="360" y1="400" x2="360" y2="440" stroke="black"/>
<line x1="600" y1="400" x2="600" y2="440" stroke="black"/>
<line x1="840" y1="400" x2="840" y2="440" stroke="black"/>
<line x1="1080" y1="400" x2="1080" y2="440" stroke="black"/>
<line x1="120" y1="411" x2="600" y2="423" stroke="black"/>
<line x1="600" y1="423" x2="590" y2="429" stroke="black"/>
<polygon fill="white" points="284,407 435,407 435,416 284,416"/>
<text x="285" y="416" textLength="149" font-family="Helvetica" font-size="12" fill="black">
wid response (email1, wid1)
</text>
<line x1="120" y1="440" x2="120" y2="480" stroke="black"/>
<line x1="360" y1="440" x2="360" y2="480" stroke="black"/>
<line x1="600" y1="440" x2="600" y2="480" stroke="black"/>
<line x1="840" y1="440" x2="840" y2="480" stroke="black"/>
<line x1="1080" y1="440" x2="1080" y2="480" stroke="black"/>
<line x1="600" y1="451" x2="360" y2="463" stroke="black"/>
<line x1="360" y1="463" x2="370" y2="469" stroke="black"/>
<polygon fill="white" points="430,447 528,447 528,456 430,456"/>
<text x="431" y="456" textLength="96" font-family="Helvetica" font-size="12" fill="black">
eth request (wid1)
</text>
<line x1="120" y1="480" x2="120" y2="520" stroke="black"/>
<line x1="360" y1="480" x2="360" y2="520" stroke="black"/>
<line x1="600" y1="480" x2="600" y2="520" stroke="black"/>
<line x1="840" y1="480" x2="840" y2="520" stroke="black"/>
<line x1="1080" y1="480" x2="1080" y2="520" stroke="black"/>
<path d="M 360 497 A118,6 0 0,1 360,485" stroke="black" fill="none"/><polygon fill="black" points="360,497 350,503 350,491"/>
<polygon fill="white" points="360,487 430,487 430,496 360,496"/>
<text x="361" y="496" textLength="68" font-family="Helvetica" font-size="12" fill="black">
create (eth1)
</text>
<line x1="120" y1="520" x2="120" y2="560" stroke="black"/>
<line x1="360" y1="520" x2="360" y2="560" stroke="black"/>
<line x1="600" y1="520" x2="600" y2="560" stroke="black"/>
<line x1="840" y1="520" x2="840" y2="560" stroke="black"/>
<line x1="1080" y1="520" x2="1080" y2="560" stroke="black"/>
<line x1="360" y1="531" x2="600" y2="543" stroke="black"/>
<line x1="600" y1="543" x2="590" y2="549" stroke="black"/>
<polygon fill="white" points="426,527 532,527 532,536 426,536"/>
<text x="427" y="536" textLength="104" font-family="Helvetica" font-size="12" fill="black">
eth response (eth1)
</text>
<line x1="120" y1="560" x2="120" y2="600" stroke="black"/>
<line x1="360" y1="560" x2="360" y2="600" stroke="black"/>
<line x1="600" y1="560" x2="600" y2="600" stroke="black"/>
<line x1="840" y1="560" x2="840" y2="600" stroke="black"/>
<line x1="1080" y1="560" x2="1080" y2="600" stroke="black"/>
<line x1="600" y1="571" x2="120" y2="583" stroke="black"/>
<line x1="120" y1="583" x2="130" y2="589" stroke="black"/>
<polygon fill="white" points="304,567 414,567 414,576 304,576"/>
<text x="305" y="576" textLength="108" font-family="Helvetica" font-size="12" fill="black">
wid request (email3)
</text>
<line x1="120" y1="600" x2="120" y2="640" stroke="black"/>
<line x1="360" y1="600" x2="360" y2="640" stroke="black"/>
<line x1="600" y1="600" x2="600" y2="640" stroke="black"/>
<line x1="840" y1="600" x2="840" y2="640" stroke="black"/>
<line x1="1080" y1="600" x2="1080" y2="640" stroke="black"/>
<line x1="120" y1="611" x2="600" y2="623" stroke="black"/>
<line x1="600" y1="623" x2="590" y2="629" stroke="black"/>
<polygon fill="white" points="284,607 435,607 435,616 284,616"/>
<text x="285" y="616" textLength="149" font-family="Helvetica" font-size="12" fill="black">
wid response (email3, wid3)
</text>
<line x1="120" y1="640" x2="120" y2="680" stroke="black"/>
<line x1="360" y1="640" x2="360" y2="680" stroke="black"/>
<line x1="600" y1="640" x2="600" y2="680" stroke="black"/>
<line x1="840" y1="640" x2="840" y2="680" stroke="black"/>
<line x1="1080" y1="640" x2="1080" y2="680" stroke="black"/>
<line x1="600" y1="651" x2="840" y2="663" stroke="black"/>
<line x1="840" y1="663" x2="830" y2="669" stroke="black"/>
<polygon fill="white" points="670,647 768,647 768,656 670,656"/>
<text x="671" y="656" textLength="96" font-family="Helvetica" font-size="12" fill="black">
eth request (wid3)
</text>
<line x1="120" y1="680" x2="120" y2="720" stroke="black"/>
<line x1="360" y1="680" x2="360" y2="720" stroke="black"/>
<line x1="600" y1="680" x2="600" y2="720" stroke="black"/>
<line x1="840" y1="680" x2="840" y2="720" stroke="black"/>
<line x1="1080" y1="680" x2="1080" y2="720" stroke="black"/>
<path d="M 840 685 A120,6 0 0,1 840,697" stroke="black" fill="none"/><polygon fill="black" points="840,697 850,703 850,691"/>
<polygon fill="white" points="768,687 838,687 838,696 768,696"/>
<text x="769" y="696" textLength="68" font-family="Helvetica" font-size="12" fill="black">
create (eth3)
</text>
<line x1="120" y1="720" x2="120" y2="760" stroke="black"/>
<line x1="360" y1="720" x2="360" y2="760" stroke="black"/>
<line x1="600" y1="720" x2="600" y2="760" stroke="black"/>
<line x1="840" y1="720" x2="840" y2="760" stroke="black"/>
<line x1="1080" y1="720" x2="1080" y2="760" stroke="black"/>
<line x1="840" y1="731" x2="600" y2="743" stroke="black"/>
<line x1="600" y1="743" x2="610" y2="749" stroke="black"/>
<polygon fill="white" points="666,727 772,727 772,736 666,736"/>
<text x="667" y="736" textLength="104" font-family="Helvetica" font-size="12" fill="black">
eth response (eth3)
</text>
<line x1="120" y1="760" x2="120" y2="800" stroke="black"/>
<line x1="360" y1="760" x2="360" y2="800" stroke="black"/>
<line x1="600" y1="760" x2="600" y2="800" stroke="black"/>
<line x1="840" y1="760" x2="840" y2="800" stroke="black"/>
<line x1="1080" y1="760" x2="1080" y2="800" stroke="black"/>
<path d="M 600 765 A120,6 0 0,1 600,777" stroke="black" fill="none"/><polygon fill="black" points="600,777 610,783 610,771"/>
<polygon fill="white" points="528,767 598,767 598,776 528,776"/>
<text x="529" y="776" textLength="68" font-family="Helvetica" font-size="12" fill="black">
create (eth2)
</text>
<line x1="120" y1="800" x2="120" y2="840" stroke="black"/>
<line x1="360" y1="800" x2="360" y2="840" stroke="black"/>
<line x1="600" y1="800" x2="600" y2="840" stroke="black"/>
<line x1="840" y1="800" x2="840" y2="840" stroke="black"/>
<line x1="1080" y1="800" x2="1080" y2="840" stroke="black"/>
<line x1="600" y1="811" x2="1080" y2="823" stroke="black"/>
<polygon fill="black" points="1080,823 1070,829 1070,817"/>
<polygon fill="white" points="751,807 927,807 927,816 751,816"/>
<text x="752" y="816" textLength="174" font-family="Helvetica" font-size="12" fill="black">
create contract (eht1, eth2, eth3)
</text>
<line x1="120" y1="840" x2="120" y2="880" stroke="black"/>
<line x1="360" y1="840" x2="360" y2="880" stroke="black"/>
<line x1="600" y1="840" x2="600" y2="880" stroke="black"/>
<line x1="840" y1="840" x2="840" y2="880" stroke="black"/>
<line x1="1080" y1="840" x2="1080" y2="880" stroke="black"/>
<line x1="600" y1="851" x2="1080" y2="863" stroke="black"/>
<polygon fill="black" points="1080,863 1070,869 1070,857"/>
<polygon fill="white" points="778,847 900,847 900,856 778,856"/>
<text x="779" y="856" textLength="120" font-family="Helvetica" font-size="12" fill="black">
consent request (eth1)
</text>
<line x1="120" y1="880" x2="120" y2="920" stroke="black"/>
<line x1="360" y1="880" x2="360" y2="920" stroke="black"/>
<line x1="600" y1="880" x2="600" y2="920" stroke="black"/>
<line x1="840" y1="880" x2="840" y2="920" stroke="black"/>
<line x1="1080" y1="880" x2="1080" y2="920" stroke="black"/>
<line x1="1080" y1="891" x2="360" y2="903" stroke="black"/>
<polygon fill="black" points="360,903 370,909 370,897"/>
<polygon fill="white" points="658,887 780,887 780,896 658,896"/>
<text x="659" y="896" textLength="120" font-family="Helvetica" font-size="12" fill="black">
consent request (eth1)
</text>
<line x1="120" y1="920" x2="120" y2="960" stroke="black"/>
<line x1="360" y1="920" x2="360" y2="960" stroke="black"/>
<line x1="600" y1="920" x2="600" y2="960" stroke="black"/>
<line x1="840" y1="920" x2="840" y2="960" stroke="black"/>
<line x1="1080" y1="920" x2="1080" y2="960" stroke="black"/>
<line x1="360" y1="931" x2="1080" y2="943" stroke="black"/>
<polygon fill="black" points="1080,943 1070,949 1070,937"/>
<polygon fill="white" points="654,927 785,927 785,936 654,936"/>
<text x="655" y="936" textLength="129" font-family="Helvetica" font-size="12" fill="black">
consent response (eth1)
</text>
<line x1="120" y1="960" x2="120" y2="1000" stroke="black"/>
<line x1="360" y1="960" x2="360" y2="1000" stroke="black"/>
<line x1="600" y1="960" x2="600" y2="1000" stroke="black"/>
<line x1="840" y1="960" x2="840" y2="1000" stroke="black"/>
<line x1="1080" y1="960" x2="1080" y2="1000" stroke="black"/>
<line x1="1080" y1="971" x2="600" y2="983" stroke="black"/>
<polygon fill="black" points="600,983 610,989 610,977"/>
<polygon fill="white" points="774,967 905,967 905,976 774,976"/>
<text x="775" y="976" textLength="129" font-family="Helvetica" font-size="12" fill="black">
consent response (eth1)
</text>
<line x1="120" y1="1000" x2="120" y2="1040" stroke="black"/>
<line x1="360" y1="1000" x2="360" y2="1040" stroke="black"/>
<line x1="600" y1="1000" x2="600" y2="1040" stroke="black"/>
<line x1="840" y1="1000" x2="840" y2="1040" stroke="black"/>
<line x1="1080" y1="1000" x2="1080" y2="1040" stroke="black"/>
<line x1="600" y1="1011" x2="1080" y2="1023" stroke="black"/>
<polygon fill="black" points="1080,1023 1070,1029 1070,1017"/>
<polygon fill="white" points="788,1007 891,1007 891,1016 788,1016"/>
<text x="789" y="1016" textLength="101" font-family="Helvetica" font-size="12" fill="black">
data request (eth1)
</text>
<line x1="120" y1="1040" x2="120" y2="1080" stroke="black"/>
<line x1="360" y1="1040" x2="360" y2="1080" stroke="black"/>
<line x1="600" y1="1040" x2="600" y2="1080" stroke="black"/>
<line x1="840" y1="1040" x2="840" y2="1080" stroke="black"/>
<line x1="1080" y1="1040" x2="1080" y2="1080" stroke="black"/>
<line x1="1080" y1="1051" x2="840" y2="1063" stroke="black"/>
<polygon fill="black" points="840,1063 850,1069 850,1057"/>
<polygon fill="white" points="908,1047 1011,1047 1011,1056 908,1056"/>
<text x="909" y="1056" textLength="101" font-family="Helvetica" font-size="12" fill="black">
data request (eth1)
</text>
<line x1="120" y1="1080" x2="120" y2="1120" stroke="black"/>
<line x1="360" y1="1080" x2="360" y2="1120" stroke="black"/>
<line x1="600" y1="1080" x2="600" y2="1120" stroke="black"/>
<line x1="840" y1="1080" x2="840" y2="1120" stroke="black"/>
<line x1="1080" y1="1080" x2="1080" y2="1120" stroke="black"/>
<line x1="840" y1="1091" x2="1080" y2="1103" stroke="black"/>
<polygon fill="black" points="1080,1103 1070,1109 1070,1097"/>
<polygon fill="white" points="893,1087 1025,1087 1025,1096 893,1096"/>
<text x="894" y="1096" textLength="130" font-family="Helvetica" font-size="12" fill="black">
confirm id request (eth1)
</text>
<line x1="120" y1="1120" x2="120" y2="1160" stroke="black"/>
<line x1="360" y1="1120" x2="360" y2="1160" stroke="black"/>
<line x1="600" y1="1120" x2="600" y2="1160" stroke="black"/>
<line x1="840" y1="1120" x2="840" y2="1160" stroke="black"/>
<line x1="1080" y1="1120" x2="1080" y2="1160" stroke="black"/>
<line x1="1080" y1="1131" x2="360" y2="1143" stroke="black"/>
<polygon fill="black" points="360,1143 370,1149 370,1137"/>
<polygon fill="white" points="653,1127 785,1127 785,1136 653,1136"/>
<text x="654" y="1136" textLength="130" font-family="Helvetica" font-size="12" fill="black">
confirm id request (eth1)
</text>
<line x1="120" y1="1160" x2="120" y2="1200" stroke="black"/>
<line x1="360" y1="1160" x2="360" y2="1200" stroke="black"/>
<line x1="600" y1="1160" x2="600" y2="1200" stroke="black"/>
<line x1="840" y1="1160" x2="840" y2="1200" stroke="black"/>
<line x1="1080" y1="1160" x2="1080" y2="1200" stroke="black"/>
<line x1="360" y1="1171" x2="1080" y2="1183" stroke="black"/>
<polygon fill="black" points="1080,1183 1070,1189 1070,1177"/>
<polygon fill="white" points="649,1167 790,1167 790,1176 649,1176"/>
<text x="650" y="1176" textLength="139" font-family="Helvetica" font-size="12" fill="black">
confirm id response (eth1)
</text>
<line x1="120" y1="1200" x2="120" y2="1240" stroke="black"/>
<line x1="360" y1="1200" x2="360" y2="1240" stroke="black"/>
<line x1="600" y1="1200" x2="600" y2="1240" stroke="black"/>
<line x1="840" y1="1200" x2="840" y2="1240" stroke="black"/>
<line x1="1080" y1="1200" x2="1080" y2="1240" stroke="black"/>
<line x1="1080" y1="1211" x2="840" y2="1223" stroke="black"/>
<polygon fill="black" points="840,1223 850,1229 850,1217"/>
<polygon fill="white" points="889,1207 1030,1207 1030,1216 889,1216"/>
<text x="890" y="1216" textLength="139" font-family="Helvetica" font-size="12" fill="black">
confirm id response (eth1)
</text>
<line x1="120" y1="1240" x2="120" y2="1280" stroke="black"/>
<line x1="360" y1="1240" x2="360" y2="1280" stroke="black"/>
<line x1="600" y1="1240" x2="600" y2="1280" stroke="black"/>
<line x1="840" y1="1240" x2="840" y2="1280" stroke="black"/>
<line x1="1080" y1="1240" x2="1080" y2="1280" stroke="black"/>
<line x1="840" y1="1251" x2="1080" y2="1263" stroke="black"/>
<polygon fill="black" points="1080,1263 1070,1269 1070,1257"/>
<polygon fill="white" points="904,1247 1015,1247 1015,1256 904,1256"/>
<text x="905" y="1256" textLength="109" font-family="Helvetica" font-size="12" fill="black">
data available (eth1)
</text>
<line x1="120" y1="1280" x2="120" y2="1320" stroke="black"/>
<line x1="360" y1="1280" x2="360" y2="1320" stroke="black"/>
<line x1="600" y1="1280" x2="600" y2="1320" stroke="black"/>
<line x1="840" y1="1280" x2="840" y2="1320" stroke="black"/>
<line x1="1080" y1="1280" x2="1080" y2="1320" stroke="black"/>
<line x1="1080" y1="1291" x2="600" y2="1303" stroke="black"/>
<polygon fill="black" points="600,1303 610,1309 610,1297"/>
<polygon fill="white" points="784,1287 895,1287 895,1296 784,1296"/>
<text x="785" y="1296" textLength="109" font-family="Helvetica" font-size="12" fill="black">
data available (eth1)
</text>
<line x1="120" y1="1320" x2="120" y2="1360" stroke="black"/>
<line x1="360" y1="1320" x2="360" y2="1360" stroke="black"/>
<line x1="600" y1="1320" x2="600" y2="1360" stroke="black"/>
<line x1="840" y1="1320" x2="840" y2="1360" stroke="black"/>
<line x1="1080" y1="1320" x2="1080" y2="1360" stroke="black"/>
<line x1="600" y1="1331" x2="1080" y2="1343" stroke="black"/>
<polygon fill="black" points="1080,1343 1070,1349 1070,1337"/>
<polygon fill="white" points="785,1327 894,1327 894,1336 785,1336"/>
<text x="786" y="1336" textLength="107" font-family="Helvetica" font-size="12" fill="black">
data received (eth1)
</text>
<line x1="120" y1="1360" x2="120" y2="1400" stroke="black"/>
<line x1="360" y1="1360" x2="360" y2="1400" stroke="black"/>
<line x1="600" y1="1360" x2="600" y2="1400" stroke="black"/>
<line x1="840" y1="1360" x2="840" y2="1400" stroke="black"/>
<line x1="1080" y1="1360" x2="1080" y2="1400" stroke="black"/>
<line x1="1080" y1="1371" x2="840" y2="1383" stroke="black"/>
<polygon fill="black" points="840,1383 850,1389 850,1377"/>
<polygon fill="white" points="905,1367 1014,1367 1014,1376 905,1376"/>
<text x="906" y="1376" textLength="107" font-family="Helvetica" font-size="12" fill="black">
data received (eth1)
</text>
<line x1="120" y1="1382" x2="120" y2="1412" stroke="black"/>
<line x1="360" y1="1382" x2="360" y2="1412" stroke="black"/>
<line x1="600" y1="1382" x2="600" y2="1412" stroke="black"/>
<line x1="840" y1="1382" x2="840" y2="1412" stroke="black"/>
<line x1="1080" y1="1382" x2="1080" y2="1412" stroke="black"/>
</svg>
